<?xml version="1.0" encoding="utf-8"?>
<!-- Generator: Adobe Illustrator 25.4.1, SVG Export Plug-In . SVG Version: 6.00 Build 0)  -->
<svg version="1.1" id="Layer_1" xmlns="http://www.w3.org/2000/svg" xmlns:xlink="http://www.w3.org/1999/xlink" x="0px" y="0px"
	 viewBox="0 0 241 195.7" style="enable-background:new 0 0 241 195.7;" xml:space="preserve">
<style type="text/css">
	.st0{fill:#9E0A06;}
	.st1{fill:#EA5924;}
	.st2{fill:url(#SVGID_1_);}
	.st3{fill:url(#SVGID_00000052101131809811547340000014634377903786845872_);}
	.st4{fill:url(#SVGID_00000175298690283654687510000007396732661447810185_);}
	.st5{fill:url(#SVGID_00000088121081183064148700000003963158736405140376_);}
</style>
<g>
	<g>
		<path class="st0" d="M141.7,17.6c8.5-1.8,16.2-2.3,25-2.3c9.4,0,18,1.5,25.9,4.4c7.9,2.9,14.7,7.1,20.5,12.6s10.2,12.1,13.4,19.9
			c3.2,7.8,4.8,16.5,4.8,26.1s-1.6,18.3-4.8,26.1s-7.7,14.4-13.4,19.9s-12.6,9.7-20.5,12.6c-7.9,2.9-16.5,4.4-25.9,4.4
			c-9.6,0-18.4-1.2-26.5-3.5c-8.1-2.3-14.2-7.1-20.3-12.8l17.7-19.4c3.6,3.7,7.7,6.5,12.2,8.5s10.1,2.9,16.9,2.9
			c5.6,0,10.7-1,15.3-2.9c4.6-1.9,8.5-4.6,11.8-8c3.3-3.4,5.8-7.5,7.5-12.3s2.6-9.9,2.6-15.4c0-5.6-0.9-10.8-2.6-15.5
			s-4.3-8.7-7.5-12.2s-7.2-6.1-11.8-8c-4.6-1.9-9.7-2.9-15.3-2.9c-5.8,0-10.7,0.7-14.9,2c-4.2,1.3-7.5,2.6-10,4"/>
		<path class="st1" d="M141.7,17.6c8.5-1.8,16.2-2.3,25-2.3c9.4,0,18,1.5,25.9,4.4c7.9,2.9,14.7,7.1,20.5,12.6s10.2,12.1,13.4,19.9
			c3.2,7.8,4.8,16.5,4.8,26.1s-1.6,18.3-4.8,26.1s-7.7,14.4-13.4,19.9s-12.6,9.7-20.5,12.6c-7.9,2.9-16.5,4.4-25.9,4.4
			c-9.6,0-18.4-1.2-26.5-3.5c-8.1-2.3-14.2-7.1-20.3-12.8l17.7-19.4c3.6,3.7,7.7,6.5,12.2,8.5s10.1,2.9,16.9,2.9
			c5.6,0,10.7-1,15.3-2.9c4.6-1.9,8.5-4.6,11.8-8c3.3-3.4,5.8-7.5,7.5-12.3s2.6-9.9,2.6-15.4c0-5.6-0.9-10.8-2.6-15.5
			s-4.3-8.7-7.5-12.2s-7.2-6.1-11.8-8c-4.6-1.9-9.7-2.9-15.3-2.9c-5.8,0-10.7,0.7-14.9,2c-4.2,1.3-7.5,2.6-10,4"/>
		
			<linearGradient id="SVGID_1_" gradientUnits="userSpaceOnUse" x1="-11982.6699" y1="-6574.5669" x2="-12054.0498" y2="-6574.5669" gradientTransform="matrix(-1 0 0 1 -11840.9697 6613.6421)">
			<stop  offset="0" style="stop-color:#A01210"/>
			<stop  offset="4.600000e-02" style="stop-color:#AF2114"/>
			<stop  offset="0.1297" style="stop-color:#C5361A"/>
			<stop  offset="0.2287" style="stop-color:#D6461E"/>
			<stop  offset="0.3512" style="stop-color:#E25122"/>
			<stop  offset="0.523" style="stop-color:#E85824"/>
			<stop  offset="1" style="stop-color:#EA5924"/>
		</linearGradient>
		<path class="st2" d="M201.3,62.8c-1.8-4.7-4.3-8.7-7.5-12.2s-7.2-6.1-11.8-8c-4.6-1.9-9.7-2.9-15.3-2.9c-5.8,0-10.7,0.7-14.9,2
			c-4.2,1.3-7.5,2.6-10,4l-0.2-28c8.5-1.8,16.2-2.3,25-2.3c9.4,0,18,1.5,25.9,4.4c7.9,2.9,14.7,7.1,20.5,12.6L201.3,62.8z"/>
		
			<linearGradient id="SVGID_00000067212868471479040890000015643220149160020873_" gradientUnits="userSpaceOnUse" x1="-11970.1396" y1="-6548.5522" x2="-11970.1396" y2="-6596.042" gradientTransform="matrix(-1 0 0 1 -11840.9697 6613.6421)">
			<stop  offset="0" style="stop-color:#A01210"/>
			<stop  offset="5.220000e-02" style="stop-color:#AD1F13"/>
			<stop  offset="0.1805" style="stop-color:#C8381B"/>
			<stop  offset="0.3112" style="stop-color:#DB4B20"/>
			<stop  offset="0.4444" style="stop-color:#E75623"/>
			<stop  offset="0.5837" style="stop-color:#EA5924"/>
			<stop  offset="0.7739" style="stop-color:#EA5924"/>
		</linearGradient>
		<path style="fill:url(#SVGID_00000067212868471479040890000015643220149160020873_);" d="M141.9,45.6v19.5l-25.4,0V48.8
			c0-2.4,0.9-4.8,2.6-6.5l22.7-24.6"/>
		<path class="st1" d="M116.5,65.1l25.4,0h21.5v24.4h-17.2c-2.6,0-5.1-1-7-2.8L116.5,65.1z"/>
		<path class="st0" d="M96.8,134.4c-8.5,1.8-16.2,2.3-25,2.3c-9.4,0-18-1.5-25.9-4.4c-7.9-2.9-14.7-7.1-20.5-12.6
			S15.2,107.5,12,99.8S7.2,83.3,7.2,73.7c0-9.6,1.6-18.3,4.8-26s7.7-14.4,13.5-19.9S38,18.1,45.9,15.2c7.9-2.9,16.5-4.4,25.9-4.4
			c9.6,0,18.4,1.2,26.5,3.5c8.1,2.3,14.2,7.2,20.3,12.8l-17.7,19.4c-3.6-3.7-7.7-6.5-12.2-8.5s-10.2-2.9-16.9-2.9
			c-5.6,0-10.7,1-15.3,2.9c-4.6,1.9-8.5,4.6-11.8,8c-3.3,3.4-5.8,7.5-7.5,12.3s-2.6,9.9-2.6,15.4c0,5.6,0.9,10.8,2.6,15.5
			c1.8,4.7,4.3,8.7,7.5,12.2c3.3,3.4,7.2,6.1,11.8,8s9.7,2.9,15.3,2.9c5.8,0,10.7-0.7,14.9-1.9c4.2-1.3,7.5-2.6,10-4"/>
		<path class="st1" d="M96.8,134.4c-8.5,1.8-16.2,2.3-25,2.3c-9.4,0-18-1.5-25.9-4.4c-7.9-2.9-14.7-7.1-20.5-12.6
			S15.2,107.5,12,99.8S7.2,83.3,7.2,73.7c0-9.6,1.6-18.3,4.8-26s7.7-14.4,13.5-19.9S38,18.1,45.9,15.2c7.9-2.9,16.5-4.4,25.9-4.4
			c9.6,0,18.4,1.2,26.5,3.5c8.1,2.3,14.2,7.2,20.3,12.8l-17.7,19.4c-3.6-3.7-7.7-6.5-12.2-8.5s-10.2-2.9-16.9-2.9
			c-5.6,0-10.7,1-15.3,2.9c-4.6,1.9-8.5,4.6-11.8,8c-3.3,3.4-5.8,7.5-7.5,12.3s-2.6,9.9-2.6,15.4c0,5.6,0.9,10.8,2.6,15.5
			c1.8,4.7,4.3,8.7,7.5,12.2c3.3,3.4,7.2,6.1,11.8,8s9.7,2.9,15.3,2.9c5.8,0,10.7-0.7,14.9-1.9c4.2-1.3,7.5-2.6,10-4"/>
		
			<linearGradient id="SVGID_00000078016059562647571330000017724667181610476715_" gradientUnits="userSpaceOnUse" x1="96.86" y1="85.095" x2="25.48" y2="85.095" gradientTransform="matrix(1 0 0 -1 0 198)">
			<stop  offset="0" style="stop-color:#A01210"/>
			<stop  offset="4.600000e-02" style="stop-color:#AF2114"/>
			<stop  offset="0.1297" style="stop-color:#C5361A"/>
			<stop  offset="0.2287" style="stop-color:#D6461E"/>
			<stop  offset="0.3512" style="stop-color:#E25122"/>
			<stop  offset="0.523" style="stop-color:#E85824"/>
			<stop  offset="1" style="stop-color:#EA5924"/>
		</linearGradient>
		<path style="fill:url(#SVGID_00000078016059562647571330000017724667181610476715_);" d="M37.2,89.2c1.8,4.7,4.3,8.7,7.5,12.2
			s7.2,6.1,11.8,8s9.7,2.9,15.3,2.9c5.8,0,10.7-0.7,14.9-1.9c4.2-1.3,7.5-2.6,10-4l0.2,28c-8.5,1.8-16.2,2.3-25,2.3
			c-9.4,0-18-1.5-25.9-4.4c-7.9-2.9-14.7-7.1-20.5-12.6L37.2,89.2z"/>
		
			<linearGradient id="SVGID_00000173872347020466091270000012647377206361368705_" gradientUnits="userSpaceOnUse" x1="109.39" y1="111.11" x2="109.39" y2="63.62" gradientTransform="matrix(1 0 0 -1 0 198)">
			<stop  offset="0" style="stop-color:#A01210"/>
			<stop  offset="5.220000e-02" style="stop-color:#AD1F13"/>
			<stop  offset="0.1805" style="stop-color:#C8381B"/>
			<stop  offset="0.3112" style="stop-color:#DB4B20"/>
			<stop  offset="0.4444" style="stop-color:#E75623"/>
			<stop  offset="0.5837" style="stop-color:#EA5924"/>
			<stop  offset="0.7739" style="stop-color:#EA5924"/>
		</linearGradient>
		<path style="fill:url(#SVGID_00000173872347020466091270000012647377206361368705_);" d="M96.7,106.3V86.9l25.4,0v16.3
			c0,2.4-0.9,4.8-2.6,6.5l-22.7,24.6"/>
		<path class="st1" d="M122.1,86.9l-25.4,0H75.2V62.5h17.2c2.6,0,5.1,1,7,2.8L122.1,86.9z"/>
	</g>
	<g>
		<path d="M31.5,174.5h-5.1v-2h7.3v9.9c-2.1,0.9-4.8,2.6-9.1,2.6c-6.9,0-12.6-5-12.6-13s5.8-12.9,12.6-12.9c2.9,0,6.1,1,8.1,2.5v2.4
			c-2-1.6-4.6-2.8-8.1-2.8c-6,0-10.3,4.3-10.3,10.8c0,6.5,4.3,10.9,10.3,10.9c2.8,0,5.1-0.6,6.9-1.7
			C31.5,181.1,31.5,174.5,31.5,174.5z"/>
		<path d="M53.5,159.6v2H41.8v8.7h9.7v2h-9.7v10h11.7v2h-14v-24.7L53.5,159.6L53.5,159.6z"/>
		<path d="M60,159.6l15,20.1v-20.1h2.1v24.7h-1.6l-15-20.1v20.1h-2.1v-24.7H60z"/>
		<path d="M83.1,184.3h-2.3l10.2-24.7h1.8l10.2,24.7h-2.5l-3-7.2H86L83.1,184.3z M91.8,163l-4.9,12.1h9.9L91.8,163z"/>
		<path d="M105,159.6h2.3v13.3c0,6.8,3.2,9.9,7.9,9.9s8-3.1,8-9.9v-13.3h2.3v13.3c0,8.3-4.1,12.1-10.2,12.1
			c-6.1,0-10.2-3.8-10.2-12.1L105,159.6L105,159.6z"/>
		<path d="M156.7,174.5h-5.1v-2h7.3v9.9c-2.1,0.9-4.8,2.6-9.1,2.6c-6.9,0-12.6-5-12.6-13s5.8-12.9,12.6-12.9c2.9,0,6.1,1,8.1,2.5
			v2.4c-2-1.6-4.6-2.8-8.1-2.8c-6,0-10.3,4.3-10.3,10.8c0,6.5,4.3,10.9,10.3,10.9c2.8,0,5.1-0.6,6.9-1.7V174.5z"/>
		<path d="M166.9,159.6v22.7h11.7v2h-14v-24.7H166.9z"/>
		<path d="M184.4,159.6v24.7h-2.3v-24.7H184.4z"/>
		<path d="M201.6,159.1c2.9,0,6.1,1,8.1,2.5v2.4c-2-1.6-4.6-2.8-8.1-2.8c-6,0-10.3,4.3-10.3,10.8c0,6.5,4.3,10.8,10.3,10.8
			c3.5,0,6.1-1.2,8.1-2.8v2.4c-2,1.5-5.2,2.5-8.1,2.5c-6.9,0-12.6-4.9-12.6-12.9C188.9,164,194.7,159.1,201.6,159.1z"/>
		<path d="M216.8,159.6v10.7h14.7v-10.7h2.3v24.7h-2.3v-12h-14.7v12h-2.3v-24.7H216.8z"/>
	</g>
</g>
</svg>
