<?xml version="1.0" encoding="utf-8"?>
<!-- Generator: Adobe Illustrator 25.4.1, SVG Export Plug-In . SVG Version: 6.00 Build 0)  -->
<svg version="1.1" id="Layer_1" xmlns="http://www.w3.org/2000/svg" xmlns:xlink="http://www.w3.org/1999/xlink" x="0px" y="0px"
	 viewBox="0 0 240.96 195.72" style="enable-background:new 0 0 240.96 195.72;" xml:space="preserve">
<style type="text/css">
	.st0{fill:#9E0A06;}
	.st1{fill:#EA5924;}
	.st2{fill:url(#SVGID_1_);}
	.st3{fill:url(#SVGID_00000081639642735054062920000013074094070444297609_);}
	.st4{fill:url(#SVGID_00000163762953737178888570000007300100514665455520_);}
	.st5{fill:url(#SVGID_00000132074947052601320900000011153247501815391105_);}
	.st6{fill:#FFFFFF;}
</style>
<g>
	<g>
		<path class="st0" d="M141.7,17.61c8.46-1.8,16.23-2.26,25.03-2.26c9.36,0,17.99,1.47,25.88,4.4c7.9,2.93,14.72,7.13,20.47,12.6
			c5.75,5.47,10.24,12.1,13.45,19.88c3.21,7.78,4.82,16.47,4.82,26.05c0,9.58-1.61,18.27-4.82,26.05
			c-3.21,7.78-7.7,14.41-13.45,19.88c-5.75,5.47-12.57,9.67-20.47,12.6c-7.89,2.93-16.52,4.4-25.88,4.4
			c-9.59,0-18.41-1.16-26.48-3.47c-8.06-2.31-14.22-7.15-20.31-12.79l17.69-19.44c3.61,3.72,7.67,6.54,12.18,8.46
			c4.51,1.92,10.15,2.88,16.92,2.88c5.64,0,10.74-0.96,15.31-2.88c4.57-1.92,8.49-4.6,11.76-8.04c3.27-3.44,5.78-7.53,7.53-12.27
			c1.75-4.74,2.62-9.87,2.62-15.4c0-5.64-0.87-10.8-2.62-15.48c-1.75-4.68-4.26-8.74-7.53-12.18c-3.27-3.44-7.19-6.12-11.76-8.04
			c-4.57-1.92-9.67-2.88-15.31-2.88c-5.75,0-10.71,0.65-14.89,1.95c-4.17,1.3-7.5,2.62-9.98,3.98"/>
		<path class="st1" d="M141.7,17.61c8.46-1.8,16.23-2.26,25.03-2.26c9.36,0,17.99,1.47,25.88,4.4c7.9,2.93,14.72,7.13,20.47,12.6
			c5.75,5.47,10.24,12.1,13.45,19.88c3.21,7.78,4.82,16.47,4.82,26.05c0,9.58-1.61,18.27-4.82,26.05
			c-3.21,7.78-7.7,14.41-13.45,19.88c-5.75,5.47-12.57,9.67-20.47,12.6c-7.89,2.93-16.52,4.4-25.88,4.4
			c-9.59,0-18.41-1.16-26.48-3.47c-8.06-2.31-14.22-7.15-20.31-12.79l17.69-19.44c3.61,3.72,7.67,6.54,12.18,8.46
			c4.51,1.92,10.15,2.88,16.92,2.88c5.64,0,10.74-0.96,15.31-2.88c4.57-1.92,8.49-4.6,11.76-8.04c3.27-3.44,5.78-7.53,7.53-12.27
			c1.75-4.74,2.62-9.87,2.62-15.4c0-5.64-0.87-10.8-2.62-15.48c-1.75-4.68-4.26-8.74-7.53-12.18c-3.27-3.44-7.19-6.12-11.76-8.04
			c-4.57-1.92-9.67-2.88-15.31-2.88c-5.75,0-10.71,0.65-14.89,1.95c-4.17,1.3-7.5,2.62-9.98,3.98"/>
		
			<linearGradient id="SVGID_1_" gradientUnits="userSpaceOnUse" x1="-10304.6738" y1="7654.5732" x2="-10376.0527" y2="7654.5732" gradientTransform="matrix(-1 0 0 -1 -10162.9697 7693.6421)">
			<stop  offset="0" style="stop-color:#A01210"/>
			<stop  offset="0.046" style="stop-color:#AF2114"/>
			<stop  offset="0.1297" style="stop-color:#C5361A"/>
			<stop  offset="0.2287" style="stop-color:#D6461E"/>
			<stop  offset="0.3512" style="stop-color:#E25122"/>
			<stop  offset="0.523" style="stop-color:#E85824"/>
			<stop  offset="1" style="stop-color:#EA5924"/>
		</linearGradient>
		<path class="st2" d="M201.33,62.8c-1.75-4.68-4.26-8.74-7.53-12.18c-3.27-3.44-7.19-6.12-11.76-8.04
			c-4.57-1.92-9.67-2.88-15.31-2.88c-5.75,0-10.71,0.65-14.89,1.95c-4.17,1.3-7.5,2.62-9.98,3.98l-0.16-28.02
			c8.46-1.8,16.23-2.26,25.03-2.26c9.36,0,17.99,1.47,25.88,4.4c7.9,2.93,14.72,7.13,20.47,12.6L201.33,62.8z"/>
		
			<linearGradient id="SVGID_00000079483459343547399370000007125114370482591150_" gradientUnits="userSpaceOnUse" x1="-10292.1367" y1="7628.5483" x2="-10292.1367" y2="7676.0371" gradientTransform="matrix(-1 0 0 -1 -10162.9697 7693.6421)">
			<stop  offset="0" style="stop-color:#A01210"/>
			<stop  offset="0.0522" style="stop-color:#AD1F13"/>
			<stop  offset="0.1805" style="stop-color:#C8381B"/>
			<stop  offset="0.3112" style="stop-color:#DB4B20"/>
			<stop  offset="0.4444" style="stop-color:#E75623"/>
			<stop  offset="0.5837" style="stop-color:#EA5924"/>
			<stop  offset="0.7739" style="stop-color:#EA5924"/>
		</linearGradient>
		<path style="fill:url(#SVGID_00000079483459343547399370000007125114370482591150_);" d="M141.86,45.62v19.46l-25.38,0.01V48.77
			c0-2.42,0.91-4.76,2.55-6.54l22.68-24.63"/>
		<path class="st1" d="M116.48,65.09l25.38-0.01h21.49v24.36H146.2c-2.59,0-5.09-0.99-6.97-2.78L116.48,65.09z"/>
		<path class="st0" d="M96.85,134.37c-8.46,1.8-16.23,2.26-25.03,2.26c-9.36,0-17.99-1.47-25.88-4.4
			c-7.9-2.93-14.72-7.13-20.47-12.6c-5.75-5.47-10.24-12.1-13.45-19.88C8.81,91.97,7.2,83.29,7.2,73.7c0-9.58,1.61-18.27,4.82-26.05
			c3.21-7.78,7.7-14.41,13.45-19.88c5.75-5.47,12.57-9.67,20.47-12.6c7.89-2.93,16.52-4.4,25.88-4.4c9.59,0,18.41,1.16,26.48,3.47
			c8.06,2.31,14.22,7.15,20.31,12.79l-17.69,19.44c-3.61-3.72-7.67-6.54-12.18-8.46c-4.51-1.92-10.15-2.88-16.92-2.88
			c-5.64,0-10.74,0.96-15.31,2.88c-4.57,1.92-8.49,4.6-11.76,8.04c-3.27,3.44-5.78,7.53-7.53,12.27c-1.75,4.74-2.62,9.87-2.62,15.4
			c0,5.64,0.87,10.8,2.62,15.48c1.75,4.68,4.26,8.74,7.53,12.18c3.27,3.44,7.19,6.12,11.76,8.04c4.57,1.92,9.67,2.88,15.31,2.88
			c5.75,0,10.71-0.65,14.89-1.95c4.17-1.3,7.5-2.62,9.98-3.98"/>
		<path class="st1" d="M96.85,134.37c-8.46,1.8-16.23,2.26-25.03,2.26c-9.36,0-17.99-1.47-25.88-4.4
			c-7.9-2.93-14.72-7.13-20.47-12.6c-5.75-5.47-10.24-12.1-13.45-19.88C8.81,91.97,7.2,83.29,7.2,73.7c0-9.58,1.61-18.27,4.82-26.05
			c3.21-7.78,7.7-14.41,13.45-19.88c5.75-5.47,12.57-9.67,20.47-12.6c7.89-2.93,16.52-4.4,25.88-4.4c9.59,0,18.41,1.16,26.48,3.47
			c8.06,2.31,14.22,7.15,20.31,12.79l-17.69,19.44c-3.61-3.72-7.67-6.54-12.18-8.46c-4.51-1.92-10.15-2.88-16.92-2.88
			c-5.64,0-10.74,0.96-15.31,2.88c-4.57,1.92-8.49,4.6-11.76,8.04c-3.27,3.44-5.78,7.53-7.53,12.27c-1.75,4.74-2.62,9.87-2.62,15.4
			c0,5.64,0.87,10.8,2.62,15.48c1.75,4.68,4.26,8.74,7.53,12.18c3.27,3.44,7.19,6.12,11.76,8.04c4.57,1.92,9.67,2.88,15.31,2.88
			c5.75,0,10.71-0.65,14.89-1.95c4.17-1.3,7.5-2.62,9.98-3.98"/>
		
			<linearGradient id="SVGID_00000083072867485611988070000014848647294403909038_" gradientUnits="userSpaceOnUse" x1="96.8536" y1="112.9092" x2="25.474" y2="112.9092">
			<stop  offset="0" style="stop-color:#A01210"/>
			<stop  offset="0.046" style="stop-color:#AF2114"/>
			<stop  offset="0.1297" style="stop-color:#C5361A"/>
			<stop  offset="0.2287" style="stop-color:#D6461E"/>
			<stop  offset="0.3512" style="stop-color:#E25122"/>
			<stop  offset="0.523" style="stop-color:#E85824"/>
			<stop  offset="1" style="stop-color:#EA5924"/>
		</linearGradient>
		<path style="fill:url(#SVGID_00000083072867485611988070000014848647294403909038_);" d="M37.23,89.18
			c1.75,4.68,4.26,8.74,7.53,12.18c3.27,3.44,7.19,6.12,11.76,8.04c4.57,1.92,9.67,2.88,15.31,2.88c5.75,0,10.71-0.65,14.89-1.95
			c4.17-1.3,7.5-2.62,9.98-3.98l0.16,28.02c-8.46,1.8-16.23,2.26-25.03,2.26c-9.36,0-17.99-1.47-25.88-4.4
			c-7.9-2.93-14.72-7.13-20.47-12.6L37.23,89.18z"/>
		
			<linearGradient id="SVGID_00000082341499352438182240000006952361323893066377_" gradientUnits="userSpaceOnUse" x1="109.39" y1="86.8843" x2="109.39" y2="134.3731">
			<stop  offset="0" style="stop-color:#A01210"/>
			<stop  offset="0.0522" style="stop-color:#AD1F13"/>
			<stop  offset="0.1805" style="stop-color:#C8381B"/>
			<stop  offset="0.3112" style="stop-color:#DB4B20"/>
			<stop  offset="0.4444" style="stop-color:#E75623"/>
			<stop  offset="0.5837" style="stop-color:#EA5924"/>
			<stop  offset="0.7739" style="stop-color:#EA5924"/>
		</linearGradient>
		<path style="fill:url(#SVGID_00000082341499352438182240000006952361323893066377_);" d="M96.7,106.35V86.9l25.38-0.01v16.32
			c0,2.42-0.91,4.76-2.55,6.54l-22.68,24.63"/>
		<path class="st1" d="M122.08,86.88L96.7,86.9H75.21V62.54h17.15c2.59,0,5.09,0.99,6.97,2.78L122.08,86.88z"/>
	</g>
	<g>
		<path class="st6" d="M31.51,174.49h-5.07v-2.02h7.33v9.92c-2.06,0.95-4.82,2.55-9.14,2.55c-6.88,0-12.64-4.98-12.64-12.97
			c0-7.99,5.77-12.89,12.64-12.89c2.92,0,6.14,0.99,8.11,2.47v2.39c-2.02-1.56-4.61-2.76-8.11-2.76c-5.97,0-10.3,4.32-10.3,10.79
			c0,6.47,4.32,10.87,10.3,10.87c2.76,0,5.07-0.58,6.88-1.69V174.49z"/>
		<path class="st6" d="M53.51,159.62v2.02H41.77v8.69h9.68v2.02h-9.68v9.97h11.74v2.02h-14v-24.71H53.51z"/>
		<path class="st6" d="M60.01,159.62l14.95,20.14v-20.14h2.14v24.71h-1.56l-14.95-20.14v20.14h-2.14v-24.71H60.01z"/>
		<path class="st6" d="M83.07,184.33h-2.35l10.21-24.71h1.85l10.21,24.71h-2.47l-2.97-7.17H86L83.07,184.33z M91.76,163l-4.94,12.15
			h9.92L91.76,163z"/>
		<path class="st6" d="M104.98,159.62h2.27v13.3c0,6.84,3.17,9.92,7.95,9.92s7.99-3.09,7.99-9.92v-13.3h2.26v13.26
			c0,8.32-4.12,12.07-10.25,12.07c-6.14,0-10.21-3.75-10.21-12.07V159.62z"/>
		<path class="st6" d="M156.67,174.49h-5.07v-2.02h7.33v9.92c-2.06,0.95-4.82,2.55-9.14,2.55c-6.88,0-12.64-4.98-12.64-12.97
			c0-7.99,5.77-12.89,12.64-12.89c2.92,0,6.14,0.99,8.11,2.47v2.39c-2.02-1.56-4.61-2.76-8.11-2.76c-5.97,0-10.3,4.32-10.3,10.79
			c0,6.47,4.32,10.87,10.3,10.87c2.76,0,5.07-0.58,6.88-1.69V174.49z"/>
		<path class="st6" d="M166.92,159.62v22.69h11.74v2.02h-14v-24.71H166.92z"/>
		<path class="st6" d="M184.38,159.62v24.71h-2.27v-24.71H184.38z"/>
		<path class="st6" d="M201.6,159.09c2.92,0,6.14,0.99,8.11,2.47v2.39c-2.02-1.56-4.61-2.76-8.11-2.76c-5.97,0-10.3,4.32-10.3,10.79
			c0,6.47,4.32,10.79,10.3,10.79c3.5,0,6.09-1.19,8.11-2.76v2.39c-1.98,1.48-5.19,2.47-8.11,2.47c-6.88,0-12.64-4.9-12.64-12.89
			C188.95,163.99,194.72,159.09,201.6,159.09z"/>
		<path class="st6" d="M216.75,159.62v10.71h14.74v-10.71h2.27v24.71h-2.27v-11.98h-14.74v11.98h-2.27v-24.71H216.75z"/>
	</g>
</g>
</svg>
