<?xml version="1.0" encoding="utf-8"?>
<!-- Generator: Adobe Illustrator 25.0.1, SVG Export Plug-In . SVG Version: 6.00 Build 0)  -->
<svg version="1.1" xmlns="http://www.w3.org/2000/svg" xmlns:xlink="http://www.w3.org/1999/xlink" x="0px" y="0px"
	 viewBox="0 0 3872.77 2688.31" style="enable-background:new 0 0 3872.77 2688.31;" xml:space="preserve">
<style type="text/css">
	.st0{fill:#9E0000;}
	.st1{fill:#F15A24;}
	.st2{fill:url(#SVGID_1_);}
	.st3{fill:url(#SVGID_2_);}
	.st4{fill:url(#SVGID_3_);}
	.st5{fill:url(#SVGID_4_);}
	.st6{fill:url(#SVGID_5_);}
	.st7{fill:url(#SVGID_6_);}
	.st8{fill:url(#SVGID_7_);}
	.st9{fill:url(#SVGID_8_);}
	.st10{fill:#FF8603;}
	.st11{fill:url(#SVGID_9_);}
	.st12{fill:url(#SVGID_10_);}
	.st13{fill:#2039CC;}
	.st14{fill:url(#SVGID_11_);}
	.st15{fill:url(#SVGID_12_);}
	.st16{fill:url(#SVGID_13_);}
	.st17{fill:url(#SVGID_14_);}
	.st18{fill:url(#SVGID_15_);}
	.st19{fill:url(#SVGID_16_);}
	.st20{fill:url(#SVGID_17_);}
	.st21{fill:url(#SVGID_18_);}
	.st22{fill:url(#SVGID_19_);}
	.st23{fill:url(#SVGID_20_);}
	.st24{fill:url(#SVGID_21_);}
	.st25{fill:url(#SVGID_22_);}
	.st26{fill:url(#SVGID_23_);}
	.st27{fill:url(#SVGID_24_);}
	.st28{fill:#FFFFFF;}
	.st29{fill:url(#SVGID_25_);}
	.st30{fill:url(#SVGID_26_);}
	.st31{fill:url(#SVGID_27_);}
	.st32{fill:url(#SVGID_28_);}
	.st33{fill:none;}
	.st34{font-family:'MrEavesModOT-Light';}
	.st35{font-size:220px;}
</style>
<g id="Background">
</g>
<g id="G2_x5F_Bogen">
	<path class="st0" d="M2059.82,1022.79c46.56-9.92,89.32-12.46,137.75-12.46c51.54,0,99.03,8.08,142.48,24.21
		c43.46,16.14,81.02,39.26,112.67,69.37c31.66,30.11,56.34,66.58,74.03,109.42c17.69,42.83,26.54,90.63,26.54,143.41
		c0,52.76-8.85,100.57-26.54,143.41c-17.69,42.83-42.37,79.3-74.03,109.42c-31.66,30.11-69.21,53.23-112.67,69.38
		c-43.45,16.14-90.94,24.21-142.48,24.21c-52.76,0-101.34-6.37-145.74-19.09c-44.38-12.73-78.29-39.38-111.81-70.42l97.38-106.98
		c19.87,20.49,42.23,36,67.04,46.56c24.84,10.55,55.87,15.83,93.12,15.83c31.05,0,59.13-5.28,84.28-15.83
		c25.14-10.56,46.72-25.3,64.72-44.23c18.01-18.95,31.82-41.44,41.44-67.51c9.63-26.07,14.43-54.33,14.43-84.74
		c0-31.05-4.8-59.45-14.43-85.21c-9.62-25.77-23.43-48.12-41.44-67.05c-18-18.95-39.58-33.68-64.72-44.23
		c-25.14-10.56-53.23-15.83-84.28-15.83c-31.66,0-58.97,3.57-81.95,10.71c-22.96,7.13-41.28,14.43-54.94,21.88"/>
	<path class="st1" d="M2059.82,1022.79c46.56-9.92,89.32-12.46,137.75-12.46c51.54,0,99.03,8.08,142.48,24.21
		c43.46,16.14,81.02,39.26,112.67,69.37c31.66,30.11,56.34,66.58,74.03,109.42c17.69,42.83,26.54,90.63,26.54,143.41
		c0,52.76-8.85,100.57-26.54,143.41c-17.69,42.83-42.37,79.3-74.03,109.42c-31.66,30.11-69.21,53.23-112.67,69.38
		c-43.45,16.14-90.94,24.21-142.48,24.21c-52.76,0-101.34-6.37-145.74-19.09c-44.38-12.73-78.29-39.38-111.81-70.42l97.38-106.98
		c19.87,20.49,42.23,36,67.04,46.56c24.84,10.55,55.87,15.83,93.12,15.83c31.05,0,59.13-5.28,84.28-15.83
		c25.14-10.56,46.72-25.3,64.72-44.23c18.01-18.95,31.82-41.44,41.44-67.51c9.63-26.07,14.43-54.33,14.43-84.74
		c0-31.05-4.8-59.45-14.43-85.21c-9.62-25.77-23.43-48.12-41.44-67.05c-18-18.95-39.58-33.68-64.72-44.23
		c-25.14-10.56-53.23-15.83-84.28-15.83c-31.66,0-58.97,3.57-81.95,10.71c-22.96,7.13-41.28,14.43-54.94,21.88"/>
	
		<linearGradient id="SVGID_1_" gradientUnits="userSpaceOnUse" x1="-539.7929" y1="15120.8281" x2="-932.6882" y2="15120.8281" gradientTransform="matrix(-1 0 0 -1 1520.0287 16261.7646)">
		<stop  offset="0" style="stop-color:#9E0000"/>
		<stop  offset="9.741008e-03" style="stop-color:#A20402"/>
		<stop  offset="0.0809" style="stop-color:#BA1F0C"/>
		<stop  offset="0.1619" style="stop-color:#CF3515"/>
		<stop  offset="0.2572" style="stop-color:#DE461C"/>
		<stop  offset="0.3752" style="stop-color:#E95121"/>
		<stop  offset="0.5406" style="stop-color:#EF5823"/>
		<stop  offset="1" style="stop-color:#F15A24"/>
	</linearGradient>
	<path class="st2" d="M2388,1271.54c-9.62-25.77-23.43-48.12-41.44-67.05c-18-18.95-39.58-33.68-64.72-44.23
		c-25.14-10.56-53.23-15.83-84.28-15.83c-31.66,0-58.97,3.57-81.95,10.71c-22.96,7.13-41.28,14.43-54.94,21.88l-0.86-154.23
		c46.56-9.92,89.32-12.46,137.75-12.46c51.54,0,99.03,8.08,142.48,24.21c43.46,16.14,81.02,39.26,112.67,69.37L2388,1271.54z"/>
</g>
<g id="G2_x5F_up">
	
		<linearGradient id="SVGID_2_" gradientUnits="userSpaceOnUse" x1="-470.7885" y1="14977.5781" x2="-470.7885" y2="15238.9717" gradientTransform="matrix(-1 0 0 -1 1520.0287 16261.7646)">
		<stop  offset="0" style="stop-color:#9E0000"/>
		<stop  offset="0.098" style="stop-color:#B81D0B"/>
		<stop  offset="0.2152" style="stop-color:#D13716"/>
		<stop  offset="0.3347" style="stop-color:#E34B1E"/>
		<stop  offset="0.4564" style="stop-color:#ED5622"/>
		<stop  offset="0.5837" style="stop-color:#F15A24"/>
		<stop  offset="0.7739" style="stop-color:#F15A24"/>
	</linearGradient>
	<path class="st3" d="M2060.68,1177.02v107.09l-139.72,0.08v-89.85c0-13.34,5.02-26.19,14.05-36l124.81-135.55"/>
</g>
<g id="G2_x5F_in">
	<path class="st1" d="M1920.96,1284.19l139.72-0.08h118.27v134.09h-94.38c-14.28,0-28.01-5.48-38.37-15.3L1920.96,1284.19z"/>
</g>
<g id="G1_x5F_Bogen">
	<path class="st0" d="M1812.95,1665.52c-46.56,9.92-89.32,12.46-137.75,12.46c-51.54,0-99.03-8.08-142.48-24.21
		c-43.46-16.13-81.02-39.26-112.67-69.37c-31.66-30.11-56.34-66.58-74.03-109.42c-17.69-42.83-26.54-90.63-26.54-143.41
		c0-52.76,8.85-100.57,26.54-143.41c17.69-42.83,42.37-79.3,74.03-109.42c31.66-30.11,69.21-53.23,112.67-69.38
		c43.45-16.14,90.94-24.21,142.48-24.21c52.76,0,101.34,6.37,145.74,19.09c44.38,12.73,78.29,39.38,111.81,70.42l-97.38,106.98
		c-19.87-20.49-42.23-36-67.04-46.56c-24.84-10.55-55.87-15.83-93.12-15.83c-31.05,0-59.13,5.28-84.28,15.83
		c-25.14,10.56-46.72,25.3-64.72,44.23c-18.01,18.95-31.82,41.44-41.44,67.51c-9.63,26.07-14.43,54.33-14.43,84.74
		c0,31.05,4.8,59.45,14.43,85.21c9.62,25.77,23.43,48.12,41.44,67.05c18,18.95,39.58,33.68,64.72,44.23
		c25.14,10.56,53.23,15.83,84.28,15.83c31.66,0,58.97-3.57,81.95-10.71c22.96-7.13,41.28-14.43,54.94-21.88"/>
	<path class="st1" d="M1812.95,1665.52c-46.56,9.92-89.32,12.46-137.75,12.46c-51.54,0-99.03-8.08-142.48-24.21
		c-43.46-16.13-81.02-39.26-112.67-69.37c-31.66-30.11-56.34-66.58-74.03-109.42c-17.69-42.83-26.54-90.63-26.54-143.41
		c0-52.76,8.85-100.57,26.54-143.41c17.69-42.83,42.37-79.3,74.03-109.42c31.66-30.11,69.21-53.23,112.67-69.38
		c43.45-16.14,90.94-24.21,142.48-24.21c52.76,0,101.34,6.37,145.74,19.09c44.38,12.73,78.29,39.38,111.81,70.42l-97.38,106.98
		c-19.87-20.49-42.23-36-67.04-46.56c-24.84-10.55-55.87-15.83-93.12-15.83c-31.05,0-59.13,5.28-84.28,15.83
		c-25.14,10.56-46.72,25.3-64.72,44.23c-18.01,18.95-31.82,41.44-41.44,67.51c-9.63,26.07-14.43,54.33-14.43,84.74
		c0,31.05,4.8,59.45,14.43,85.21c9.62,25.77,23.43,48.12,41.44,67.05c18,18.95,39.58,33.68,64.72,44.23
		c25.14,10.56,53.23,15.83,84.28,15.83c31.66,0,58.97-3.57,81.95-10.71c22.96-7.13,41.28-14.43,54.94-21.88"/>
	<linearGradient id="SVGID_3_" gradientUnits="userSpaceOnUse" x1="1812.9532" y1="1547.3752" x2="1420.058" y2="1547.3752">
		<stop  offset="0" style="stop-color:#9E0000"/>
		<stop  offset="9.741008e-03" style="stop-color:#A20402"/>
		<stop  offset="0.0809" style="stop-color:#BA1F0C"/>
		<stop  offset="0.1619" style="stop-color:#CF3515"/>
		<stop  offset="0.2572" style="stop-color:#DE461C"/>
		<stop  offset="0.3752" style="stop-color:#E95121"/>
		<stop  offset="0.5406" style="stop-color:#EF5823"/>
		<stop  offset="1" style="stop-color:#F15A24"/>
	</linearGradient>
	<path class="st4" d="M1484.78,1416.77c9.62,25.77,23.43,48.12,41.44,67.05c18,18.95,39.58,33.68,64.72,44.23
		c25.14,10.56,53.23,15.83,84.28,15.83c31.66,0,58.97-3.57,81.95-10.71c22.96-7.13,41.28-14.43,54.94-21.88l0.86,154.23
		c-46.56,9.92-89.32,12.46-137.75,12.46c-51.54,0-99.03-8.08-142.48-24.21c-43.46-16.13-81.02-39.26-112.67-69.37L1484.78,1416.77z"
		/>
</g>
<g id="G1_x5F_up">
	<linearGradient id="SVGID_4_" gradientUnits="userSpaceOnUse" x1="1881.9576" y1="1404.1259" x2="1881.9576" y2="1665.5189">
		<stop  offset="0" style="stop-color:#9E0000"/>
		<stop  offset="0.098" style="stop-color:#B81D0B"/>
		<stop  offset="0.2152" style="stop-color:#D13716"/>
		<stop  offset="0.3347" style="stop-color:#E34B1E"/>
		<stop  offset="0.4564" style="stop-color:#ED5622"/>
		<stop  offset="0.5837" style="stop-color:#F15A24"/>
		<stop  offset="0.7739" style="stop-color:#F15A24"/>
	</linearGradient>
	<path class="st5" d="M1812.1,1511.29V1404.2l139.72-0.08v89.85c0,13.34-5.02,26.19-14.05,36l-124.81,135.55"/>
</g>
<g id="G1_x5F_in">
	<path class="st1" d="M1951.82,1404.13l-139.72,0.08h-118.27v-134.09h94.38c14.28,0,28.01,5.48,38.37,15.3L1951.82,1404.13z"/>
	<rect x="1137.4" y="1841.98" class="st33" width="1556.5" height="469.08"/>
	<text transform="matrix(1 0 0 1 1324.6292 1973.981)" class="st28 st34 st35">GENAU GLICH</text>
</g>
<g id="Path">
</g>
</svg>
