<?xml version="1.0" encoding="utf-8"?>
<!-- Generator: Adobe Illustrator 25.1.0, SVG Export Plug-In . SVG Version: 6.00 Build 0)  -->
<svg version="1.1" xmlns="http://www.w3.org/2000/svg" xmlns:xlink="http://www.w3.org/1999/xlink" x="0px" y="0px"
	 viewBox="0 0 800 800" style="enable-background:new 0 0 800 800;" xml:space="preserve">
<style type="text/css">
	.st0{fill:#53007A;}
	.st1{fill:none;stroke:#53007A;stroke-width:13.8921;stroke-linecap:round;stroke-miterlimit:10;}
</style>
<g id="Layer_1">
	<g>
		<g>
			<path class="st0" d="M419.19,394.57l-19.94,0.49l-20.14-45.9l-4.2,8.41v38.08l-18.78,0.46v-120.3l18.78,3.13v52.88l24.24-48.84
				l18.85,3.14l-24.91,48.25L419.19,394.57z"/>
			<path class="st0" d="M466.45,393.42l-39.65,0.97V287.59l14.85,2.48v83.85l24.8,0.31V393.42z"/>
			<path class="st0" d="M507.75,392.41l-33.49,0.82V295.5l33.49,5.58v17.66l-21.09-2.74v16.46l19.63,1.9v17.72l-19.63-1.17v23.57
				l21.09,0.26V392.41z"/>
			<path class="st0" d="M538.4,391.66l-23.35,0.57v-15.95l6.78,0.06v-57.21l-6.78-0.9V302.3l23.35,3.89v15.15l-6.3-0.84v55.94
				l6.3,0.06V391.66z"/>
			<path class="st0" d="M577.15,390.72l-8.01,0.2l-14.43-56.17v56.52l-8.48,0.21V307.5l10.99,1.83l12.32,47.61v-45.55l7.61,1.27
				V390.72z"/>
			<path class="st0" d="M419.19,522.19l-19.94,4.98l-20.14-41.36l-4.2,9.36v38.08l-18.78,4.69v-120.3l18.78-1.1v52.88l24.24-54.3
				l18.85-1.11l-24.91,53.86L419.19,522.19z"/>
			<path class="st0" d="M474.22,473.07c0,12.08-1.87,21.75-5.65,29.09c-3.84,7.45-9.6,12.19-17.41,14.17
				c-8.04,2.04-14.29,0.17-18.6-5.72c-4.38-5.98-6.6-15.59-6.6-28.76v-68.31l14.97-0.88v64.94c0,7.22,0.82,12.44,2.44,15.64
				c1.62,3.18,4.22,4.37,7.78,3.6c3.47-0.75,5.97-2.95,7.54-6.58c1.56-3.61,2.34-9.01,2.34-16.24v-62.55l13.18-0.77V473.07z"/>
			<path class="st0" d="M525.51,495.64l-10.19,2.54l-18.49-59.5v64.11l-10.94,2.73v-95.5l14.17-0.83l15.76,50.51v-51.43l9.68-0.57
				V495.64z"/>
			<path class="st0" d="M564.29,460.65c0,7.93-1.41,14.69-4.26,20.33c-2.89,5.72-6.87,9.25-12,10.55c-3.03,0.77-5.7,0.82-8,0.17
				c-2.33-0.67-4.53-1.71-6.6-3.14v-20.72l1.09-0.21c2.04,3.26,4.31,5.59,6.8,7.02c2.46,1.41,4.79,1.86,7.01,1.38
				c0.57-0.12,1.31-0.4,2.23-0.82c0.91-0.42,1.66-0.95,2.23-1.59c0.7-0.82,1.27-1.77,1.72-2.86c0.45-1.09,0.67-2.61,0.67-4.56
				c0-1.8-0.33-3.3-0.98-4.48c-0.66-1.19-1.62-2.02-2.9-2.5c-1.35-0.5-2.78-0.95-4.3-1.33c-1.53-0.39-2.98-0.98-4.34-1.77
				c-3.15-1.79-5.45-4.59-6.86-8.39c-1.42-3.82-2.13-8.74-2.13-14.74c0-8.04,1.61-14.74,4.8-20.04c3.14-5.22,7.11-7.94,11.88-8.2
				c2.35-0.13,4.65,0.27,6.89,1.19c2.22,0.91,4.13,2.09,5.73,3.54v18.61l-0.93,0.1c-1.37-2.46-3.07-4.48-5.1-6.06
				c-2.04-1.59-4.15-2.29-6.32-2.1c-0.77,0.07-1.54,0.26-2.31,0.57c-0.77,0.31-1.52,0.84-2.24,1.59c-0.64,0.63-1.19,1.54-1.65,2.73
				c-0.46,1.2-0.69,2.54-0.69,4.01c0,2.23,0.37,3.9,1.12,5c0.74,1.1,2.13,2,4.16,2.72c1.32,0.46,2.58,0.91,3.79,1.35
				c1.2,0.43,2.48,1.07,3.84,1.91c2.65,1.68,4.59,4.17,5.83,7.48C563.68,450.69,564.29,455.1,564.29,460.65z"/>
			<path class="st0" d="M594.26,418.15l-9.28,0.89v61.76l-8,2V419.8l-10.13,0.97v-15.48l27.4-1.61V418.15z"/>
			<path class="st0" d="M419.19,648.36l-19.94,9.85l-20.14-36.44l-4.2,10.38v38.08l-18.78,9.28V559.2l18.78-5.69v52.88l24.24-60.21
				l18.85-5.71L393.1,600.4L419.19,648.36z"/>
			<path class="st0" d="M476.61,620.01l-13.42,6.63l-3.63-18.53l-20.15,9.17l-3.97,23.06l-15.32,7.56l21.53-114.59l16.15-4.89
				L476.61,620.01z M456.29,591.04l-6.61-33.91l-6.78,39.54L456.29,591.04z"/>
			<path class="st0" d="M521.35,570.74c0,4.29-0.4,8.3-1.2,12.05c-0.8,3.76-1.91,7.1-3.32,10.01c-1.65,3.44-3.47,6.23-5.47,8.34
				c-2.02,2.13-4.61,3.98-7.78,5.55l-20.02,9.88v-95.95l17.88-5.41c3.55-1.08,6.12-1.61,7.73-1.61c1.6,0,3.18,0.59,4.73,1.77
				c1.6,1.23,2.78,3.18,3.55,5.83c0.77,2.65,1.15,5.83,1.15,9.54c0,4.32-0.53,8.31-1.59,12.01c-1.06,3.71-2.58,6.87-4.54,9.49v0.49
				c2.76,0.1,4.92,1.65,6.5,4.66C520.57,560.38,521.35,564.82,521.35,570.74z M507.46,539.23c0-1.51-0.18-2.96-0.54-4.35
				c-0.36-1.39-1-2.3-1.92-2.73c-0.82-0.38-1.85-0.39-3.09-0.04c-1.24,0.36-3,0.92-5.28,1.69l-1.1,0.37v19.81l1.83-0.69
				c1.83-0.69,3.38-1.34,4.66-1.95c1.27-0.6,2.26-1.39,2.99-2.36c1.02-1.32,1.68-2.79,1.99-4.4
				C507.3,542.98,507.46,541.19,507.46,539.23z M510.15,575.25c0-2.89-0.26-5-0.79-6.35c-0.53-1.35-1.43-2.15-2.71-2.4
				c-0.88-0.17-2.09,0.04-3.64,0.64c-1.56,0.6-3.21,1.26-4.93,1.97l-2.55,1.05v23.34l0.85-0.39c3.26-1.5,5.57-2.57,6.95-3.25
				c1.37-0.67,2.63-1.78,3.78-3.33c1.16-1.55,1.95-3.26,2.39-5.15C509.93,579.49,510.15,577.45,510.15,575.25z"/>
			<path class="st0" d="M561.22,548.87c0,10.02-1.29,18.3-3.89,24.9c-2.63,6.68-6.56,11.35-11.87,13.99
				c-5.44,2.71-9.65,1.97-12.54-2.3c-2.93-4.33-4.41-11.89-4.41-22.65v-37.99l10.04-3.04v35.5c0,5.93,0.55,10.1,1.65,12.51
				c1.09,2.4,2.85,3.03,5.26,1.92c2.35-1.09,4.06-3.23,5.13-6.44c1.07-3.19,1.6-7.77,1.6-13.74v-33.88l9.04-2.73V548.87z
				 M561.22,509.86l-9.15,2.79v-12.77l9.15-2.75V509.86z M538.54,517.35l-10.02,3.06v-13.36l10.02-3.05V517.35z"/>
			<path class="st0" d="M596.79,560.66l-7.53,3.72v-33.37l-11.67,4.78v34.36l-8.3,4.1v-79.57l8.3-2.51v28.54l11.67-4.35v-27.73
				l7.53-2.28V560.66z"/>
			<path class="st0" d="M627.52,545.49l-6.14,3.03l-10.99-43.79v49.22l-6.41,3.17v-72.94l8.32-2.52l9.39,37v-39.85l5.84-1.77V545.49
				z"/>
			<path class="st0" d="M649.81,534.48l-16.2,8v-67.27l16.2-4.9v12.41l-10.28,3.49v11.42l9.56-3.56v12.44l-9.56,3.92v16.35
				l10.28-4.7V534.48z"/>
		</g>
	</g>
	<path class="st0" d="M151.19,609.99"/>
</g>
<g id="KKstroke">
	<path class="st1" d="M158.39,610.74V208.32c0-9.34,5.21-17.89,13.5-22.18l129.84-67.1c16.63-8.6,36.46,3.5,36.42,22.23l-0.04,19.26
		l-1,501.99c-0.04,18.74-19.94,30.76-36.54,22.06l-102.2-53.53c-8.25-4.32-13.41-12.87-13.38-22.19l1.11-368.92
		c0.03-10.08,6.12-19.15,15.44-23l127.12-52.46c6.13-2.53,13.02-2.52,19.14,0.04l128.38,53.58c9.3,3.88,15.35,12.96,15.35,23.04
		v40.1"/>
</g>
</svg>
