<?xml version="1.0" encoding="utf-8"?>
<!-- Generator: Adobe Illustrator 25.0.1, SVG Export Plug-In . SVG Version: 6.00 Build 0)  -->
<svg version="1.1" xmlns="http://www.w3.org/2000/svg" xmlns:xlink="http://www.w3.org/1999/xlink" x="0px" y="0px"
	 viewBox="0 0 1536 1332.03" style="enable-background:new 0 0 1536 1332.03;" xml:space="preserve">
<style type="text/css">
	.st0{fill:none;}
	.st1{fill:#E5E5E5;}
	.st2{fill:#316291;}
	.st3{fill:#F1F1F1;}
	.st4{fill:#CBCBCB;}
	.st5{fill:#FFFFFF;}
	.st6{stroke:#FFFFFF;stroke-miterlimit:10;}
	.st7{fill:#988575;stroke:#A57C52;stroke-miterlimit:10;}
	.st8{fill:#988575;stroke:#000000;stroke-miterlimit:10;}
	.st9{fill:#4D4D4D;stroke:#000000;stroke-miterlimit:10;}
	.st10{stroke:#000000;stroke-miterlimit:10;}
	.st11{fill:#DABBA5;stroke:#000000;stroke-miterlimit:10;}
	.st12{fill:none;stroke:#FFFFFF;stroke-miterlimit:10;}
	.st13{fill:none;stroke:#000000;stroke-miterlimit:10;}
	.st14{fill:#D2B49F;}
	.st15{fill:url(#New_Pattern_4);stroke:#000000;stroke-miterlimit:10;}
	.st16{fill:url(#New_Pattern_2);stroke:#000000;stroke-miterlimit:10;}
	.st17{fill:url(#New_Pattern);stroke:#000000;stroke-miterlimit:10;}
	.st18{fill:#C1A794;stroke:#C1A794;stroke-miterlimit:10;}
	.st19{fill:url(#New_Pattern_3);stroke:#000000;stroke-miterlimit:10;}
	.st20{opacity:0.24;}
	.st21{opacity:0.18;stroke:#000000;stroke-miterlimit:10;}
	.st22{opacity:0.27;stroke:#000000;stroke-miterlimit:10;}
	.st23{fill:#FFF3EB;stroke:#000E03;stroke-miterlimit:10;}
	.st24{fill:#00B8F0;stroke:#000000;stroke-miterlimit:10;}
	.st25{fill:#000E01;stroke:#000000;stroke-miterlimit:10;}
	.st26{fill:#DABBA5;}
	.st27{fill:#C47771;}
	.st28{fill:#E2DACD;}
	.st29{fill:#362D22;}
	.st30{opacity:0.46;fill:#C1A794;}
	.st31{opacity:0.48;}
	.st32{fill:#009DB5;stroke:#000000;stroke-miterlimit:10;}
	.st33{opacity:0.21;fill:#8B6239;}
	.st34{opacity:0.86;fill:#FFFFFF;}
	.st35{fill:#695931;}
	.st36{opacity:0.15;}
	.st37{fill:url(#SVGID_1_);stroke:#000000;stroke-miterlimit:10;}
	.st38{fill:url(#SVGID_2_);stroke:#000000;stroke-miterlimit:10;}
	.st39{fill:url(#SVGID_3_);stroke:#000000;stroke-miterlimit:10;}
	.st40{fill:url(#SVGID_4_);stroke:#000000;stroke-miterlimit:10;}
	.st41{fill:url(#SVGID_5_);stroke:#000000;stroke-miterlimit:10;}
	.st42{fill:url(#SVGID_6_);stroke:#000000;stroke-miterlimit:10;}
	.st43{opacity:0.27;fill:#AB9585;}
	.st44{fill:#E5E5E5;stroke:#000000;stroke-miterlimit:10;}
	.st45{fill:#1C9B99;stroke:#000000;stroke-miterlimit:10;}
	.st46{opacity:0.35;}
	.st47{fill:#AF9E8A;stroke:#000000;stroke-miterlimit:10;}
	.st48{fill:url(#SVGID_7_);stroke:#000000;stroke-miterlimit:10;}
	.st49{fill:url(#SVGID_8_);stroke:#000000;stroke-miterlimit:10;}
	.st50{fill:url(#SVGID_9_);stroke:#000000;stroke-miterlimit:10;}
	.st51{fill:url(#SVGID_10_);stroke:#000000;stroke-miterlimit:10;}
	.st52{fill:url(#SVGID_11_);stroke:#000000;stroke-miterlimit:10;}
	.st53{fill:url(#SVGID_12_);stroke:#000000;stroke-miterlimit:10;}
	.st54{fill:#CBCBCB;stroke:#000000;stroke-miterlimit:10;}
	.st55{fill:url(#SVGID_13_);stroke:#000000;stroke-miterlimit:10;}
	.st56{fill:url(#SVGID_14_);stroke:#000000;stroke-miterlimit:10;}
	.st57{fill:url(#SVGID_15_);stroke:#000000;stroke-miterlimit:10;}
	.st58{fill:url(#SVGID_16_);stroke:#000000;stroke-miterlimit:10;}
	.st59{fill:url(#SVGID_17_);stroke:#000000;stroke-miterlimit:10;}
	.st60{fill:url(#SVGID_18_);stroke:#000000;stroke-miterlimit:10;}
	.st61{fill:url(#SVGID_19_);stroke:#000000;stroke-miterlimit:10;}
	.st62{fill:url(#SVGID_20_);stroke:#000000;stroke-miterlimit:10;}
	.st63{fill:url(#SVGID_21_);stroke:#000000;stroke-miterlimit:10;}
	.st64{fill:url(#SVGID_22_);stroke:#000000;stroke-miterlimit:10;}
	.st65{fill:url(#SVGID_23_);stroke:#000000;stroke-miterlimit:10;}
	.st66{fill:url(#SVGID_24_);stroke:#000000;stroke-miterlimit:10;}
	.st67{fill:url(#SVGID_25_);stroke:#000000;stroke-miterlimit:10;}
	.st68{fill:url(#SVGID_26_);stroke:#000000;stroke-miterlimit:10;}
	.st69{fill:url(#SVGID_27_);stroke:#000000;stroke-miterlimit:10;}
	.st70{fill:url(#SVGID_28_);stroke:#000000;stroke-miterlimit:10;}
	.st71{fill:url(#SVGID_29_);stroke:#000000;stroke-miterlimit:10;}
	.st72{fill:url(#SVGID_30_);stroke:#000000;stroke-miterlimit:10;}
</style>
<pattern  x="-84" y="-4475" width="52.67" height="91.22" patternUnits="userSpaceOnUse" id="New_Pattern" viewBox="52.83 -121.72 52.67 91.22" style="overflow:visible;">
	<g>
		<rect x="52.83" y="-121.72" class="st0" width="52.67" height="91.22"/>
		<g>
			<polygon class="st1" points="79,-46 106,-61 132,-46 132,-15 106,0 79,-15 			"/>
			<circle class="st2" cx="93.5" cy="-33.5" r="12"/>
		</g>
		<g>
			<polygon class="st1" points="26.33,-46 53.33,-61 79.33,-46 79.33,-15 53.33,0 26.33,-15 			"/>
		</g>
		<g>
			<polygon class="st1" points="105.33,-91.61 132.33,-106.61 158.33,-91.61 158.33,-60.61 132.33,-45.61 105.33,-60.61 			"/>
		</g>
		<g>
			<polygon class="st1" points="52.67,-91.61 79.67,-106.61 105.67,-91.61 105.67,-60.61 79.67,-45.61 52.67,-60.61 			"/>
			<circle class="st2" cx="67.17" cy="-79.11" r="12"/>
		</g>
		<g>
			<polygon class="st1" points="0,-91.61 27,-106.61 53,-91.61 53,-60.61 27,-45.61 0,-60.61 			"/>
		</g>
		<g>
			<polygon class="st1" points="79,-137.22 106,-152.22 132,-137.22 132,-106.22 106,-91.22 79,-106.22 			"/>
			<circle class="st2" cx="93.5" cy="-124.72" r="12"/>
		</g>
		<g>
			<polygon class="st1" points="26.33,-137.22 53.33,-152.22 79.33,-137.22 79.33,-106.22 53.33,-91.22 26.33,-106.22 			"/>
		</g>
	</g>
</pattern>
<pattern  x="-84" y="-4475" width="52.67" height="91.22" patternUnits="userSpaceOnUse" id="New_Pattern_2" viewBox="52.83 -121.72 52.67 91.22" style="overflow:visible;">
	<g>
		<rect x="52.83" y="-121.72" class="st0" width="52.67" height="91.22"/>
		<g>
			<polygon class="st3" points="106,-61 132,-46 132,-15 106,0 79,-15 79,-46 			"/>
			<circle class="st2" cx="110" cy="-20" r="12"/>
		</g>
		<g>
			<polygon class="st3" points="53.33,-61 79.33,-46 79.33,-15 53.33,0 26.33,-15 26.33,-46 			"/>
			<circle class="st2" cx="57.33" cy="-20" r="12"/>
		</g>
		<g>
			<polygon class="st3" points="132.33,-106.61 158.33,-91.61 158.33,-60.61 132.33,-45.61 105.33,-60.61 105.33,-91.61 			"/>
		</g>
		<g>
			<polygon class="st3" points="79.67,-106.61 105.67,-91.61 105.67,-60.61 79.67,-45.61 52.67,-60.61 52.67,-91.61 			"/>
			<circle class="st2" cx="83.67" cy="-65.61" r="12"/>
		</g>
		<g>
			<polygon class="st3" points="27,-106.61 53,-91.61 53,-60.61 27,-45.61 0,-60.61 0,-91.61 			"/>
		</g>
		<g>
			<polygon class="st3" points="106,-152.22 132,-137.22 132,-106.22 106,-91.22 79,-106.22 79,-137.22 			"/>
			<circle class="st2" cx="110" cy="-111.22" r="12"/>
		</g>
		<g>
			<polygon class="st3" points="53.33,-152.22 79.33,-137.22 79.33,-106.22 53.33,-91.22 26.33,-106.22 26.33,-137.22 			"/>
			<circle class="st2" cx="57.33" cy="-111.22" r="12"/>
		</g>
	</g>
</pattern>
<pattern  x="-84" y="-4475" width="52.67" height="91.22" patternUnits="userSpaceOnUse" id="New_Pattern_3" viewBox="52.83 -121.72 52.67 91.22" style="overflow:visible;">
	<g>
		<rect x="52.83" y="-121.72" class="st0" width="52.67" height="91.22"/>
		<g>
			<polygon class="st4" points="79,-46 106,-61 132,-46 132,-15 106,0 79,-15 			"/>
			<circle class="st2" cx="93.5" cy="-33.5" r="12"/>
		</g>
		<g>
			<polygon class="st4" points="26.33,-46 53.33,-61 79.33,-46 79.33,-15 53.33,0 26.33,-15 			"/>
		</g>
		<g>
			<polygon class="st4" points="105.33,-91.61 132.33,-106.61 158.33,-91.61 158.33,-60.61 132.33,-45.61 105.33,-60.61 			"/>
		</g>
		<g>
			<polygon class="st4" points="52.67,-91.61 79.67,-106.61 105.67,-91.61 105.67,-60.61 79.67,-45.61 52.67,-60.61 			"/>
			<circle class="st2" cx="67.17" cy="-79.11" r="12"/>
		</g>
		<g>
			<polygon class="st4" points="0,-91.61 27,-106.61 53,-91.61 53,-60.61 27,-45.61 0,-60.61 			"/>
		</g>
		<g>
			<polygon class="st4" points="79,-137.22 106,-152.22 132,-137.22 132,-106.22 106,-91.22 79,-106.22 			"/>
			<circle class="st2" cx="93.5" cy="-124.72" r="12"/>
		</g>
		<g>
			<polygon class="st4" points="26.33,-137.22 53.33,-152.22 79.33,-137.22 79.33,-106.22 53.33,-91.22 26.33,-106.22 			"/>
		</g>
	</g>
</pattern>
<pattern  x="-84" y="-4475" width="52.67" height="91.22" patternUnits="userSpaceOnUse" id="New_Pattern_4" viewBox="59.33 -125.22 52.67 91.22" style="overflow:visible;">
	<g>
		<rect x="59.33" y="-125.22" class="st0" width="52.67" height="91.22"/>
		<g>
			<circle class="st5" cx="112.5" cy="-33.5" r="33.5"/>
			<circle class="st2" cx="112" cy="-34" r="12"/>
		</g>
		<g>
			<circle class="st5" cx="59.83" cy="-33.5" r="33.5"/>
			<circle class="st2" cx="59.33" cy="-34" r="12"/>
		</g>
		<g>
			<circle class="st5" cx="138.83" cy="-79.11" r="33.5"/>
		</g>
		<g>
			<circle class="st5" cx="86.17" cy="-79.11" r="33.5"/>
			<circle class="st2" cx="85.67" cy="-79.61" r="12"/>
		</g>
		<g>
			<circle class="st5" cx="33.5" cy="-79.11" r="33.5"/>
		</g>
		<g>
			<circle class="st5" cx="112.5" cy="-124.72" r="33.5"/>
			<circle class="st2" cx="112" cy="-125.22" r="12"/>
		</g>
		<g>
			<circle class="st5" cx="59.83" cy="-124.72" r="33.5"/>
			<circle class="st2" cx="59.33" cy="-125.22" r="12"/>
		</g>
	</g>
</pattern>
<g id="Ebene_3">
</g>
<g id="Ebene_1">
</g>
<g id="Körper">
</g>
<g id="Kopf">
	<g>
		<path class="st10" d="M996,957.26l-42-76.28l6.55-94.4c-0.79,1.7-1.6,3.39-2.42,5.08c-0.22,0.45-0.44,0.9-0.66,1.35
			c-0.77,1.56-1.56,3.12-2.36,4.66c-0.16,0.31-0.33,0.63-0.5,0.94c-0.72,1.37-1.46,2.74-2.21,4.1c-0.34,0.62-0.69,1.24-1.04,1.86
			c-0.63,1.12-1.27,2.23-1.91,3.33c-0.57,0.98-1.15,1.95-1.74,2.92c-0.51,0.84-1.02,1.69-1.54,2.52c-0.53,0.85-1.06,1.7-1.6,2.54
			c-0.37,0.58-0.75,1.16-1.13,1.74c-1.09,1.68-2.21,3.34-3.35,4.99c-0.24,0.35-0.48,0.7-0.72,1.05c-0.73,1.05-1.48,2.1-2.23,3.14
			c-0.07,0.09-0.13,0.18-0.2,0.27c-1.6,2.2-3.24,4.37-4.92,6.51c-0.04,0.05-0.08,0.1-0.12,0.16c-2.65,3.36-5.4,6.65-8.27,9.88
			c-2.53,2.84-5.15,5.63-7.86,8.36v0c-1.41,1.42-2.84,2.82-4.29,4.2c-0.04,0.04-0.08,0.07-0.12,0.11c-1.39,1.33-2.81,2.64-4.25,3.94
			c-0.37,0.34-0.76,0.67-1.14,1c-1.14,1.01-2.29,2.03-3.46,3.02c-1.61,1.37-3.25,2.72-4.92,4.05c-14.65,11.66-30.16,22.6-47.3,30.3
			c-22.54,10.12-51.66,13.01-75.81,7.62c-26.13-5.83-49.1-21.5-69.74-37.92c-1.62-1.29-3.2-2.6-4.77-3.92
			c-0.49-0.42-0.98-0.84-1.46-1.26c-1.07-0.92-2.14-1.85-3.19-2.79c-0.54-0.49-1.08-0.98-1.61-1.47c-1-0.92-1.99-1.84-2.96-2.77
			c-0.5-0.48-1-0.96-1.5-1.44c-1.07-1.04-2.13-2.1-3.17-3.16c-0.36-0.37-0.73-0.73-1.09-1.09c-2.83-2.91-5.56-5.89-8.18-8.92
			c-0.31-0.36-0.61-0.72-0.91-1.07c-1.01-1.18-2-2.36-2.98-3.56c-0.34-0.41-0.67-0.83-1.01-1.24c-0.88-1.1-1.75-2.2-2.61-3.31
			c-2.96-3.83-5.78-7.73-8.47-11.72c-0.04-0.06-0.08-0.13-0.12-0.19c-1.24-1.84-2.45-3.71-3.63-5.58c-0.32-0.51-0.63-1.02-0.95-1.54
			c-0.89-1.44-1.77-2.89-2.64-4.35c-0.39-0.66-0.77-1.32-1.15-1.98c-0.77-1.34-1.53-2.68-2.28-4.03c-0.39-0.72-0.79-1.43-1.18-2.15
			c-0.73-1.34-1.43-2.7-2.13-4.06c-0.36-0.71-0.74-1.41-1.09-2.12c-0.79-1.56-1.55-3.14-2.31-4.72c-0.24-0.5-0.49-0.99-0.72-1.49
			c-0.97-2.05-1.91-4.12-2.82-6.2c-0.08-0.18-0.16-0.35-0.23-0.53c-1.86-4.25-3.62-8.56-5.27-12.9c-0.13-0.35-0.26-0.69-0.39-1.04
			c-1.6-4.26-3.11-8.56-4.53-12.9c-0.14-0.42-0.27-0.85-0.41-1.27c-0.58-1.8-1.14-3.61-1.69-5.42c-0.12-0.41-0.25-0.82-0.37-1.23
			c-0.63-2.12-1.25-4.25-1.84-6.39c-0.11-0.38-0.21-0.77-0.31-1.15c-0.49-1.78-0.96-3.56-1.42-5.35c-0.15-0.57-0.3-1.15-0.44-1.72
			c-0.54-2.13-1.07-4.27-1.57-6.41L605,916.26l6.05-70.67L546,942.26l-158,111v143h365h52h343v-153L996,957.26z M985.83,1141.67
			c0.11-0.27,0.17-0.41,0.17-0.41S985.94,1141.4,985.83,1141.67z"/>
		<path class="st11" d="M860,1108.26l95-84l19.34-106.35L954,880.98l6.55-94.4c-0.79,1.7-1.6,3.39-2.42,5.08
			c-0.22,0.45-0.44,0.9-0.66,1.35c-0.77,1.56-1.56,3.12-2.36,4.66c-0.16,0.31-0.33,0.63-0.5,0.94c-0.72,1.37-1.46,2.74-2.21,4.1
			c-0.34,0.62-0.69,1.24-1.04,1.86c-0.63,1.12-1.27,2.23-1.91,3.33c-0.57,0.98-1.15,1.95-1.74,2.92c-0.51,0.84-1.02,1.69-1.54,2.52
			c-0.53,0.85-1.06,1.7-1.6,2.54c-0.37,0.58-0.75,1.16-1.13,1.74c-1.09,1.68-2.21,3.34-3.35,4.99c-0.24,0.35-0.48,0.7-0.72,1.05
			c-0.73,1.05-1.48,2.1-2.23,3.14c-0.07,0.09-0.13,0.18-0.2,0.27c-1.6,2.2-3.24,4.37-4.92,6.51c-0.04,0.05-0.08,0.1-0.12,0.16
			c-2.65,3.36-5.4,6.65-8.27,9.88c-2.53,2.84-5.15,5.63-7.86,8.36v0c-1.41,1.42-2.84,2.82-4.29,4.2c-0.04,0.04-0.08,0.07-0.12,0.11
			c-1.39,1.33-2.81,2.64-4.25,3.94c-0.37,0.34-0.76,0.67-1.14,1c-1.14,1.01-2.29,2.03-3.46,3.02c-1.61,1.37-3.25,2.72-4.92,4.05
			c-14.65,11.66-30.16,22.6-47.3,30.3c-22.54,10.12-51.66,13.01-75.81,7.62c-26.13-5.83-49.1-21.5-69.74-37.92
			c-1.62-1.29-3.2-2.6-4.77-3.92c-0.49-0.42-0.98-0.84-1.46-1.26c-1.07-0.92-2.14-1.85-3.19-2.79c-0.54-0.49-1.08-0.98-1.61-1.47
			c-1-0.92-1.99-1.84-2.96-2.77c-0.5-0.48-1-0.96-1.5-1.44c-1.07-1.04-2.13-2.1-3.17-3.16c-0.36-0.37-0.73-0.73-1.09-1.09
			c-2.83-2.91-5.56-5.89-8.18-8.92c-0.31-0.36-0.61-0.72-0.91-1.07c-1.01-1.18-2-2.36-2.98-3.56c-0.34-0.41-0.67-0.83-1.01-1.24
			c-0.88-1.1-1.75-2.2-2.61-3.31c-2.96-3.83-5.78-7.73-8.47-11.72c-0.04-0.06-0.08-0.13-0.12-0.19c-1.24-1.84-2.45-3.71-3.63-5.58
			c-0.32-0.51-0.63-1.02-0.95-1.54c-0.89-1.44-1.77-2.89-2.64-4.35c-0.39-0.66-0.77-1.32-1.15-1.98c-0.77-1.34-1.53-2.68-2.28-4.03
			c-0.39-0.72-0.79-1.43-1.18-2.15c-0.73-1.34-1.43-2.7-2.13-4.06c-0.36-0.71-0.74-1.41-1.09-2.12c-0.79-1.56-1.55-3.14-2.31-4.72
			c-0.24-0.5-0.49-0.99-0.72-1.49c-0.97-2.05-1.91-4.12-2.82-6.2c-0.08-0.18-0.16-0.35-0.23-0.53c-1.86-4.25-3.62-8.56-5.27-12.9
			c-0.13-0.35-0.26-0.69-0.39-1.04c-1.6-4.26-3.11-8.56-4.53-12.9c-0.14-0.42-0.27-0.85-0.41-1.27c-0.58-1.8-1.14-3.61-1.69-5.42
			c-0.12-0.41-0.25-0.82-0.37-1.23c-0.63-2.12-1.25-4.25-1.84-6.39c-0.11-0.38-0.21-0.77-0.31-1.15c-0.49-1.78-0.96-3.56-1.42-5.35
			c-0.15-0.57-0.3-1.15-0.44-1.72c-0.54-2.13-1.07-4.27-1.57-6.41L605,916.26l6.05-70.67l-53.17,79.02l7.12,45.65l81,125l159,39.21
			L860,1108.26z"/>
		<g>
			<path class="st13" d="M897.58,868.3c-14.65,11.66-30.16,22.6-47.3,30.3c-22.54,10.12-51.66,13.01-75.81,7.62
				c-26.13-5.83-49.1-21.5-69.74-37.92c-46.39-36.93-70.72-88.15-83.44-142.43L605,916.26c33,81,78,147,78,147l29,9l45,22l21,46
				c25-15,64-37,88-51s85-165,85-165l9.55-137.68C946.28,817.48,926.1,845.59,897.58,868.3z"/>
		</g>
		<path class="st14" d="M669.49,832.57c-24.36-31.38-39.19-68.27-48.2-106.7L605,916.26c33,81,78,147,78,147l16.88,5.24
			C691.09,1022.78,671.12,911.18,669.49,832.57z"/>
		<path class="st14" d="M959.55,789.58c-9.47,20.5-21.56,39.76-36.94,57.04c-4.72,23.65-8.61,51.19-8.61,77.64
			c0,46.87-33.76,127.01-54.05,170.94c1.75-1.01,3.44-1.99,5.05-2.94c24-14,85-165,85-165L959.55,789.58z"/>
		<pattern  id="SVGID_1_" xlink:href="#New_Pattern_4" patternTransform="matrix(1 0 0 1 -288.0208 273.104)">
		</pattern>
		<path class="st37" d="M604,916.26l6.05-70.67L545,942.26l19,206l113.13-92.39C664.62,1036.5,630.46,981.2,604,916.26z"/>
		<pattern  id="SVGID_2_" xlink:href="#New_Pattern_2" patternTransform="matrix(1 0 0 1 -288.0208 273.104)">
		</pattern>
		<path class="st38" d="M996,957.26l-42-76.28l-3,43.28c0,0-3.39,8.4-8.89,21.41L911,1088.26l51,42l69,10L996,957.26z"/>
		<pattern  id="SVGID_3_" xlink:href="#New_Pattern_2" patternTransform="matrix(1 0 0 1 -288.0208 273.104)">
		</pattern>
		<polygon class="st39" points="546,942.26 388,1053.26 388,1196.26 753,1196.26 778,1140.26 757,1094.26 712,1072.26 700,1068.26 
			683,1063.26 678,1056.26 565,1148.26 		"/>
		<pattern  id="SVGID_4_" xlink:href="#New_Pattern" patternTransform="matrix(1 0 0 1 -288.0208 273.104)">
		</pattern>
		<polygon class="st40" points="753,1196.26 805,1196.26 834,1128.26 778,1140.26 		"/>
		<path class="st18" d="M918.34,853.95c0.14-0.66,0.28-1.31,0.42-1.97c-5.66,5.7-11.69,11.16-18.18,16.32
			c-14.65,11.66-30.16,22.6-47.3,30.3c-22.54,10.12-51.66,13.01-75.81,7.62c-26.13-5.83-49.1-21.5-69.74-37.92
			c-27.98-22.27-47.92-49.75-62.14-79.95c3.64,20.35,12.24,53.13,13.27,56.19c13.66,40.42,29.67,78.05,72.51,93.97
			c27.09,10.07,57.31,10.42,85.82,8.66c24.76-1.53,54.04-3.63,72.79-22.08C908.59,906.76,913.23,877.8,918.34,853.95z"/>
		<pattern  id="SVGID_5_" xlink:href="#New_Pattern_3" patternTransform="matrix(1 0 0 1 -288.0208 273.104)">
		</pattern>
		<path class="st41" d="M866,1089.26c-1.62,0.94-3.31,1.93-5.05,2.94c0,0,0-0.01,0.01-0.01L778,1140.26l56-12l21,8l41-20l15-28
			l30.7-141.62C923.69,989.22,884.2,1078.64,866,1089.26z"/>
		<pattern  id="SVGID_6_" xlink:href="#New_Pattern_2" patternTransform="matrix(1 0 0 1 -288.0208 273.104)">
		</pattern>
		<polygon class="st42" points="805,1196.26 1148,1196.26 1148,1043.26 996,957.26 1031,1140.26 962,1130.26 911,1088.26 
			896,1116.26 855,1136.26 834,1128.26 		"/>
		<polygon class="st20" points="565,1148.26 621.5,1148.76 678,1056.26 		"/>
		<polygon class="st21" points="1031,1140.26 996,957.26 1049,1140.26 		"/>
		<polygon class="st22" points="855,1134.26 899,1134.26 919,1105.26 944.35,1115.73 911,1088.26 896,1116.26 		"/>
		<g>
			<path class="st26" d="M802.01,228.03c1.39-0.02,2.78-0.04,4.16-0.05c41.81-0.23,82.94,8.46,120.37,27.39
				c24.58,12.43,46.46,30.37,62.6,52.76c34.52,47.86,42.97,110.63,43.18,168.19c0.03,6.99,1.02,18.68-3.95,24.48
				c4.36-2.34,8.65-5.34,12.92-8.05c4.55-2.9,10.33-5.14,14.49-0.13c2.1,2.52,2.91,5.86,3.49,9.09c3.84,21.23,0.74,43.08-3.44,64.25
				c-4.9,24.86-11.27,49.4-17.63,73.93c-2.87,11.08-7.02,22.68-18.42,27.2c-2.22,0.88-27.82-0.9-27.5-4.33
				c-7.23,76.66-29,156-93.73,207.54c-14.65,11.66-30.16,22.6-47.3,30.3c-22.54,10.12-51.66,13.01-75.81,7.62
				c-26.13-5.83-49.1-21.5-69.74-37.92C641,818.76,619.23,739.42,612,662.76c0.32,3.43-25.27,5.21-27.5,4.33
				c-11.4-4.52-15.54-16.12-18.42-27.2c-6.36-24.52-12.73-49.07-17.63-73.93c-4.17-21.17-7.28-43.01-3.44-64.25
				c0.58-3.23,1.39-6.57,3.49-9.09c4.17-5,9.94-2.76,14.49,0.13c4.26,2.71,8.55,5.71,12.92,8.05c-4.97-5.8-3.97-17.5-3.95-24.48
				c0.21-57.56,8.66-120.33,43.18-168.19C656.8,250.4,733.71,229.21,802.01,228.03z"/>
			<path d="M802,227.03c17.27-0.32,34.57,0.88,51.63,3.66c8.53,1.4,16.98,3.26,25.32,5.49c8.35,2.24,16.59,4.86,24.65,7.98
				c8.07,3.09,15.98,6.59,23.7,10.48c7.7,3.94,15.15,8.39,22.25,13.35c7.07,4.99,13.82,10.45,20.11,16.4
				c6.26,5.98,12.11,12.4,17.4,19.26c5.24,6.9,9.9,14.21,14.21,21.71c1.1,1.87,2.01,3.83,3.03,5.74c0.97,1.93,2.03,3.82,2.93,5.79
				l2.66,5.92l1.33,2.96c0.43,0.99,0.79,2.01,1.19,3.01c6.44,16.05,11.04,32.79,14.27,49.75c3.2,16.97,4.99,34.18,5.92,51.4
				c0.5,8.61,0.66,17.24,0.74,25.86c0.03,4.26,0.26,8.61-0.08,12.99c-0.17,2.19-0.47,4.39-1.07,6.55c-0.6,2.15-1.51,4.31-3.04,6.13
				l0,0l-1.23-1.53c4.04-3.06,7.9-6.27,12.11-9.3c2.23-1.55,4.73-3.03,7.91-3.61c1.58-0.29,3.37-0.25,5.09,0.29
				c1.72,0.53,3.23,1.59,4.37,2.77c2.34,2.39,3.43,5.38,4.11,8.06c0.33,1.36,0.59,2.68,0.79,3.97c0.19,1.29,0.44,2.58,0.59,3.88
				c0.69,5.19,1.01,10.41,1.02,15.61c0.02,10.41-1.11,20.73-2.8,30.88c-1.69,10.15-3.82,20.15-6.06,30.13
				c-4.58,19.94-9.86,39.63-15.26,59.33c-1.42,4.96-3.09,9.99-5.81,14.61c-1.36,2.3-2.98,4.5-4.92,6.41
				c-1.94,1.91-4.19,3.53-6.64,4.72l-1.87,0.81c-0.09,0.03-0.11,0.06-0.34,0.13c-0.18,0.06-0.29,0.07-0.41,0.1
				c-0.23,0.04-0.42,0.06-0.61,0.07c-0.37,0.03-0.71,0.04-1.05,0.05c-1.35,0.02-2.64-0.04-3.93-0.11c-2.58-0.15-5.14-0.39-7.7-0.69
				c-2.56-0.31-5.1-0.7-7.65-1.23c-1.27-0.27-2.54-0.57-3.82-0.99c-0.64-0.21-1.28-0.45-1.93-0.78c-0.33-0.17-0.66-0.37-1.01-0.67
				c-0.17-0.15-0.35-0.35-0.51-0.6c-0.16-0.28-0.29-0.65-0.26-1.05l0-0.05l1.99,0.19c-2.33,28.37-6.76,56.67-14.5,84.19
				c-7.78,27.47-19.18,54.14-35.28,77.95c-1.97,3-4.12,5.88-6.22,8.79c-1.08,1.44-2.2,2.84-3.3,4.26l-1.66,2.12l-1.73,2.07
				c-4.55,5.56-9.46,10.82-14.57,15.88l-3.89,3.74c-1.32,1.22-2.67,2.4-4.01,3.61l-2.01,1.8l-2.07,1.72l-4.15,3.44
				c-5.58,4.46-11.28,8.8-17.16,12.92c-5.88,4.11-11.95,8-18.24,11.52c-6.3,3.51-12.82,6.67-19.69,9.16
				c-13.69,4.95-28.18,7.32-42.67,7.51c-7.25,0.08-14.52-0.43-21.71-1.62c-7.2-1.16-14.24-3.18-21.03-5.74
				c-13.6-5.14-26.14-12.52-37.89-20.74c-5.88-4.12-11.58-8.46-17.16-12.92l-4.15-3.44l-2.07-1.73l-2.01-1.8l-4.01-3.61l-3.89-3.74
				c-5.11-5.06-10.05-10.3-14.61-15.86l-1.73-2.07l-1.67-2.12c-1.1-1.42-2.23-2.82-3.31-4.26c-2.11-2.9-4.26-5.79-6.23-8.79
				c-2.06-2.95-3.92-6.02-5.85-9.05c-1.81-3.1-3.69-6.16-5.38-9.32c-1.76-3.12-3.37-6.33-5-9.52c-0.8-1.61-1.55-3.23-2.32-4.85
				c-0.79-1.61-1.52-3.24-2.24-4.89c-2.95-6.53-5.55-13.21-7.96-19.94c-2.44-6.73-4.55-13.56-6.52-20.43
				c-3.9-13.75-6.87-27.74-9.23-41.8c-1.17-7.03-2.16-14.09-3.05-21.16c-0.84-7.08-1.53-14.17-2.12-21.26l0-0.02l1.99-0.19
				c0.04,0.4-0.08,0.78-0.24,1.06c-0.16,0.26-0.34,0.46-0.51,0.61c-0.35,0.3-0.68,0.5-1.01,0.67c-0.65,0.33-1.29,0.57-1.93,0.78
				c-1.28,0.41-2.55,0.71-3.82,0.97c-2.54,0.52-5.09,0.9-7.65,1.2c-2.56,0.29-5.12,0.52-7.7,0.66c-1.29,0.06-2.58,0.11-3.92,0.09
				c-0.34-0.01-0.68-0.02-1.04-0.05c-0.18-0.02-0.37-0.03-0.59-0.07c-0.11-0.02-0.23-0.04-0.38-0.08l-0.24-0.08l-0.12-0.05
				l-1.86-0.81c-2.43-1.19-4.67-2.79-6.6-4.7c-1.93-1.9-3.54-4.08-4.89-6.38c-2.71-4.61-4.37-9.62-5.77-14.58
				c-5.36-19.7-10.6-39.4-15.15-59.34c-2.23-9.97-4.35-19.97-6.03-30.11c-1.67-10.13-2.8-20.43-2.78-30.82
				c0.01-5.19,0.33-10.4,1.02-15.57c0.15-1.29,0.39-2.58,0.59-3.87c0.19-1.28,0.45-2.59,0.78-3.94c0.67-2.65,1.73-5.58,4-7.9
				c1.1-1.15,2.55-2.18,4.21-2.7c1.65-0.53,3.38-0.58,4.93-0.31c3.11,0.54,5.6,1.98,7.82,3.5c4.23,2.99,8.16,6.13,12.26,9.07
				l0.03,0.02l-1.23,1.53c-1.52-1.81-2.44-3.96-3.04-6.11c-0.6-2.16-0.9-4.36-1.07-6.54c-0.34-4.37-0.11-8.71-0.08-12.96
				c0.09-8.6,0.25-17.21,0.74-25.81c0.93-17.19,2.71-34.36,5.89-51.31c3.22-16.93,7.79-33.64,14.2-49.67l1.18-3.01l1.33-2.95
				l2.65-5.91c0.42-0.99,0.93-1.95,1.42-2.91l1.48-2.88c1-1.91,1.94-3.86,3-5.74l3.29-5.58l1.65-2.79c0.54-0.94,1.19-1.8,1.78-2.71
				c2.43-3.57,4.76-7.21,7.45-10.61c10.52-13.74,23.38-25.61,37.62-35.38c14.24-9.79,29.82-17.53,45.98-23.55
				c16.17-6.02,32.95-10.33,49.93-13.26C767.55,228.88,784.77,227.33,802,227.03z M802.03,229.03c-17.13,0.3-34.25,1.83-51.13,4.74
				c-16.87,2.91-33.53,7.19-49.57,13.16c-16.03,5.97-31.46,13.64-45.55,23.32c-14.08,9.66-26.78,21.39-37.16,34.95
				c-2.65,3.35-4.95,6.95-7.36,10.48c-0.58,0.89-1.23,1.75-1.76,2.68l-1.63,2.76l-3.26,5.52c-1.05,1.86-1.98,3.79-2.97,5.68
				l-1.47,2.85c-0.49,0.95-0.99,1.89-1.41,2.88l-2.63,5.85l-1.31,2.93l-1.17,2.99c-6.35,15.89-10.9,32.47-14.09,49.29
				c-3.15,16.84-4.93,33.93-5.85,51.04c-0.49,8.56-0.65,17.14-0.74,25.71c-0.03,4.33-0.26,8.6,0.07,12.8c0.16,2.1,0.45,4.18,1,6.16
				c0.55,1.97,1.37,3.86,2.63,5.35l4.09,4.86l-5.32-3.32l-0.03-0.01c-4.87-1.91-9.3-4.63-13.67-7.1c-2.07-1.18-4.23-2.12-6.18-2.36
				c-1.97-0.23-3.44,0.29-4.74,1.67c-2.7,2.71-3.26,7.98-4.02,12.85c-0.67,4.93-0.99,9.92-1.02,14.92
				c-0.05,10.01,1.03,20.04,2.57,30.02c1.57,9.98,3.59,19.95,5.73,29.88c4.26,19.87,9.25,39.64,14.18,59.38
				c1.29,4.85,2.76,9.63,5.11,13.9c2.33,4.26,5.65,7.91,9.91,10.11l1.62,0.76l0.1,0.05c0.03,0.01-0.01,0-0.01,0
				c0.01,0,0.03,0.01,0.08,0.02c0.09,0.02,0.22,0.04,0.36,0.05c0.27,0.03,0.56,0.05,0.86,0.06c1.21,0.06,2.47,0.04,3.72,0.01
				c2.51-0.07,5.03-0.22,7.55-0.45c2.51-0.23,5.02-0.5,7.49-0.92c1.23-0.21,2.45-0.46,3.62-0.78c0.58-0.17,1.14-0.36,1.63-0.59
				c0.24-0.11,0.46-0.24,0.6-0.35c0.07-0.05,0.1-0.1,0.11-0.1c0,0-0.03,0.07-0.01,0.15l1.99-0.19l0,0.02
				c1.55,14.11,3.51,28.16,6.09,42.1c2.61,13.93,5.86,27.72,9.92,41.27c4.05,13.54,8.92,26.83,14.83,39.64
				c0.72,1.61,1.46,3.21,2.25,4.78c0.78,1.58,1.53,3.17,2.33,4.74c1.64,3.12,3.24,6.26,5,9.3c1.68,3.09,3.56,6.07,5.36,9.09
				c1.92,2.95,3.77,5.94,5.81,8.8c1.96,2.92,4.1,5.71,6.18,8.54c1.07,1.4,2.17,2.76,3.26,4.14l1.64,2.06l1.71,2.01
				c4.49,5.41,9.34,10.5,14.36,15.4l3.82,3.63l3.94,3.5l1.97,1.74l2.03,1.67l4.07,3.34c5.55,4.38,11.17,8.65,16.94,12.67
				c11.53,8.04,23.72,15.15,36.76,20.05c6.51,2.45,13.21,4.32,20.04,5.45c6.84,1.14,13.8,1.64,20.76,1.58
				c13.91-0.15,27.88-2.42,40.94-7.12c6.51-2.34,12.81-5.39,18.95-8.76c6.13-3.38,12.07-7.14,17.86-11.14
				c5.79-4.01,11.42-8.26,16.97-12.64l4.07-3.34l2.03-1.67l1.97-1.75c1.31-1.17,2.64-2.32,3.94-3.5l3.82-3.63
				c5.02-4.91,9.89-9.98,14.39-15.39l1.71-2.01l1.65-2.06c1.09-1.38,2.2-2.74,3.27-4.14c2.09-2.83,4.22-5.63,6.19-8.55
				c2.04-2.86,3.9-5.86,5.82-8.81c1.8-3.02,3.68-6,5.37-9.1c1.76-3.05,3.37-6.19,5.01-9.31c0.8-1.57,1.55-3.16,2.33-4.75
				c0.79-1.58,1.53-3.18,2.25-4.79c5.91-12.82,10.71-26.14,14.79-39.67c8.15-27.11,12.88-55.19,15.91-83.39l1.99,0.19l0-0.01
				c0.01-0.08-0.01-0.14-0.02-0.14c0.02,0.01,0.05,0.05,0.12,0.11c0.14,0.11,0.36,0.24,0.6,0.35c0.49,0.22,1.06,0.41,1.64,0.58
				c1.16,0.32,2.39,0.56,3.62,0.77c2.47,0.41,4.98,0.67,7.49,0.88c2.51,0.21,5.04,0.35,7.54,0.41c1.25,0.02,2.51,0.03,3.71-0.03
				c0.3-0.02,0.59-0.04,0.85-0.07c0.13-0.01,0.25-0.04,0.34-0.05c0.03-0.01,0.08-0.02,0.05-0.01c-0.07,0.03,0.04-0.02,0.1-0.05
				l1.61-0.77c4.22-2.2,7.51-5.83,9.82-10.08c2.34-4.25,3.79-9.03,5.07-13.87c4.87-19.75,9.84-39.53,14.07-59.39
				c2.13-9.93,4.14-19.9,5.7-29.87c1.53-9.97,2.6-19.99,2.55-29.97c-0.03-4.99-0.35-9.96-1.02-14.87c-0.15-1.23-0.38-2.45-0.57-3.67
				c-0.19-1.23-0.43-2.41-0.71-3.53c-0.56-2.22-1.39-4.17-2.66-5.44c-1.24-1.29-2.54-1.76-4.44-1.56c-1.87,0.22-4.02,1.12-6.08,2.27
				c-4.39,2.43-8.89,5.09-13.83,6.87l-3.22,1.16l1.98-2.69l0,0c1.26-1.5,2.08-3.38,2.63-5.36c0.55-1.98,0.84-4.07,1-6.17
				c0.33-4.21,0.1-8.49,0.07-12.83c-0.09-8.59-0.25-17.19-0.74-25.76c-0.93-17.15-2.71-34.27-5.89-51.14
				c-3.21-16.85-7.78-33.46-14.16-49.37c-0.4-0.99-0.76-2-1.18-2.99l-1.32-2.93l-2.63-5.86c-0.89-1.95-1.94-3.82-2.9-5.73
				c-1-1.89-1.91-3.84-2.99-5.68c-4.26-7.43-8.88-14.65-14.05-21.47c-5.22-6.78-11-13.12-17.19-19.03
				c-6.22-5.88-12.88-11.28-19.88-16.22c-7.02-4.9-14.39-9.3-22.01-13.2c-7.66-3.85-15.51-7.33-23.51-10.4
				c-8-3.09-16.18-5.7-24.46-7.92c-8.28-2.21-16.67-4.06-25.13-5.45C836.37,229.91,819.19,228.71,802.03,229.03z"/>
		</g>
		<path class="st14" d="M1059.3,501.72c-0.58-3.23-1.39-6.57-3.49-9.09c-4.17-5-9.94-2.76-14.49,0.13
			c-4.26,2.71-8.55,5.71-12.92,8.05c4.97-5.8,3.97-17.5,3.95-24.48c-0.21-57.56-8.66-120.33-43.18-168.19
			c-16.15-22.38-38.03-40.33-62.6-52.76c-37.43-18.94-78.56-27.62-120.37-27.39c-1.38,0.01-2.77,0.02-4.16,0.05
			c-68.3,1.18-145.21,22.37-186.86,80.1c-34.52,47.86-42.97,110.63-43.18,168.19c-0.03,6.99-1.02,18.68,3.95,24.48
			c-4.36-2.34-8.65-5.34-12.92-8.05c-4.55-2.9-10.33-5.14-14.49-0.13c-2.1,2.52-2.91,5.86-3.49,9.09
			c-3.84,21.23-0.74,43.08,3.44,64.25c4.9,24.86,11.27,49.4,17.63,73.93c2.87,11.08,7.02,22.68,18.42,27.2
			c2.22,0.88,27.82-0.9,27.5-4.33c7.23,76.66,29,156,93.73,207.54c20.64,16.43,43.6,32.09,69.74,37.92
			c24.15,5.39,53.27,2.5,75.81-7.62c17.14-7.7,32.65-18.64,47.3-30.3c64.73-51.54,86.5-130.88,93.73-207.54
			c-0.32,3.43,25.27,5.21,27.5,4.33c11.4-4.52,15.54-16.12,18.42-27.2c6.36-24.52,12.73-49.07,17.63-73.93
			C1060.03,544.8,1063.14,522.95,1059.3,501.72z M987.44,646.26l-24,97c0,0-55,179-152,147H805c-97,32-152-147-152-147l-24-97
			c0,0-10-60-7-103s26-90,26-90s-4-64,21-106s123-27,123-27h32.44c0,0,98-15,123,27s21,106,21,106s23,47,26,90
			S987.44,646.26,987.44,646.26z"/>
		<path class="st27" d="M806.48,795.19c-18.75-0.02-39.39-4.26-53.68-17.21c-7.27-6.58-12.93-15.41-18.53-23.39
			c-6.68-9.51-13.04-19.24-19.19-29.11c-0.46-0.74-0.92-1.48-1.38-2.22c-0.96-1.56-1.92-3.18-3.04-4.58
			c2.75-0.22,5.56-0.19,8.35-0.58c16.76-2.33,33.5-5.43,50.43-6.26c12.51-0.62,24.58,2.48,37.05,2.48c12.46,0,24.53-3.1,37.04-2.48
			c12.37,0.61,24.55,3.01,36.85,4.28c1.8,0.19,21.04,3.64,21.94,2.18c-1.02,1.65-2.04,3.3-3.06,4.95
			c-11.19,18.14-22.59,36.33-37.27,51.91c-7.33,7.77-14.49,12.36-24.75,15.59C827.35,793.88,816.86,795.2,806.48,795.19z"/>
		<path class="st28" d="M806.5,766.26c-16.85-1.14-34.39-4.21-49.88-11.18c-14.74-6.64-28.04-17.78-34.25-32.7
			c23.56,3.31,47.3,5.26,71.09,5.78c32.48,0.71,65.01-1.24,97.17-5.78c-5.73,13.98-17.81,24.66-31.37,31.33
			C843.04,761.67,824.41,765.05,806.5,766.26"/>
		<g>
			<g>
				<path d="M592,621.76c-3.46-3.06-5.92-7.16-7.67-11.46c-1.76-4.33-2.64-8.97-2.94-13.62l-0.05-3.49
					c-0.01-1.16,0.13-2.32,0.21-3.48c0.12-2.33,0.61-4.6,1.03-6.88c0.45-2.27,1.21-4.47,1.83-6.68c0.82-2.16,1.68-4.29,2.6-6.39
					c-0.5,2.25-1.1,4.45-1.66,6.66l-0.64,3.35c-0.19,1.12-0.51,2.21-0.6,3.34c-0.22,2.25-0.67,4.47-0.68,6.73
					c-0.03,1.12-0.18,2.25-0.15,3.37l0.1,3.37c0.25,4.47,1.01,8.92,2.41,13.19C587.21,614.02,589.16,618.15,592,621.76z"/>
			</g>
			<g>
				<path d="M557,550.76c-0.82-4.05-1.42-8.14-1.92-12.25c-0.49-4.11-0.81-8.23-0.94-12.38c-0.03-2.07,0.02-4.16,0.22-6.24
					c0.11-1.04,0.26-2.08,0.54-3.12c0.13-0.52,0.32-1.03,0.57-1.53c0.26-0.49,0.63-0.99,1.22-1.29c0.6-0.3,1.3-0.17,1.81,0.07
					c0.51,0.26,0.95,0.59,1.34,0.96c0.78,0.73,1.42,1.56,2.03,2.41c1.17,1.72,2.21,3.51,3.13,5.37c-1.12-1.74-2.23-3.48-3.52-5.07
					c-0.64-0.8-1.3-1.58-2.06-2.23c-0.38-0.33-0.78-0.6-1.2-0.79c-0.42-0.17-0.85-0.21-1.18-0.02c-0.69,0.4-1.05,1.43-1.3,2.35
					c-0.25,0.96-0.38,1.97-0.47,2.98c-0.17,2.03-0.18,4.08-0.13,6.13c0.04,4.11,0.37,8.22,0.7,12.32c0.16,2.05,0.35,4.11,0.56,6.16
					L557,550.76z"/>
			</g>
			<path class="st13" d="M612,640.76c1.21-3.13,1.22-6.54,1.1-9.76c-0.27-6.98-1.55-13.97-3.89-20.75c-2.07-6-6.21-11.7-6.21-18"/>
		</g>
		<path class="st29" d="M678.74,495.96c-3.36-0.78-6.7-1.64-10.08-2.04c-0.63,2,2.13,6.26,4.5,6.35c-6.71-0.25-13.58,0.68-19.9,2.99
			c1.66,0.74,3.11,1.94,4.17,3.42c-0.64-0.9-7.98,0.42-8.92,0.85c0.99,3.46,2.03,8.65,4.9,11.08c3.39,2.88,7.34,1.37,10.97,0.27
			c5-1.51,10.23-2.48,15.31-3.69c13.04-3.1,25.96-7.05,39.44-7.27c18.58-0.3,36.29,5.15,53.53,11.57c3.65,1.36,6.92,3.38,10.71,4.47
			c2.69,0.77,3.82-0.11,3.17-2.77c-1.44-5.83-3-11.23-8.99-12.85c-7.65-2.07-14.12-6.44-21.42-9.35
			c-16.93-6.75-35.33-2.87-52.79-1.58c-5.64,0.42-11.3,0.46-16.93-0.08C683.79,497.08,681.25,496.54,678.74,495.96z"/>
		<path class="st30" d="M731,580.71c12.29,1.33,24.65-2.31,34.26-10.09c13.85-11.22,27.51-29.69-0.26-47.36
			c-30.85-19.63-74.97-8.29-98.59,0.24c-8.82,3.19-11.65,14.31-5.32,21.23C673.46,558.27,696.4,576.96,731,580.71z"/>
		<g class="st31">
			<path d="M677.73,533.05c3.25-2.42,6.69-4.54,10.25-6.45c3.55-1.95,7.24-3.62,11.02-5.14c3.79-1.49,7.68-2.72,11.66-3.74
				c3.99-0.96,8.07-1.64,12.22-1.95c4.15-0.28,8.36-0.15,12.53,0.46c2.09,0.29,4.16,0.74,6.24,1.36c2.04,0.66,4.04,1.45,5.92,2.44
				c7.62,3.85,13.51,9.92,18.26,16.38l-0.67,0.74c-1.75-1.07-3.4-2.22-5.03-3.35c-1.64-1.13-3.28-2.2-4.91-3.26
				c-3.28-2.09-6.6-3.98-10.04-5.44c-0.85-0.39-1.73-0.7-2.59-1.04c-0.87-0.32-1.76-0.57-2.63-0.87c-1.76-0.47-3.58-0.91-5.44-1.2
				c-3.71-0.6-7.52-0.75-11.33-0.6c-3.82,0.11-7.66,0.59-11.46,1.32c-3.82,0.67-7.61,1.62-11.36,2.73
				c-7.51,2.23-14.92,5.07-22.1,8.46L677.73,533.05z"/>
		</g>
		<path class="st54" d="M707.76,526.99c-7.43,1.69-15.67,4.65-24.76,9.27c0,0,6.5,6.49,25.56,10.38c-2.22-2.87-3.56-6.47-3.56-10.38
			C705,532.84,706.02,529.66,707.76,526.99z"/>
		<path class="st54" d="M765,548.26c0-1.23-8.67-16.77-29.02-21.66c1.9,2.74,3.02,6.07,3.02,9.66c0,5.27-2.4,9.97-6.16,13.09
			C741.98,549.68,752.63,549.42,765,548.26z"/>
		<path class="st45" d="M739,536.26c0-3.59-1.12-6.91-3.02-9.66c-7.69-1.85-17.04-2.17-28.22,0.38c-1.74,2.67-2.76,5.85-2.76,9.27
			c0,3.91,1.34,7.51,3.56,10.38c6.54,1.33,14.55,2.36,24.29,2.71C736.6,546.23,739,541.53,739,536.26z"/>
		<circle class="st10" cx="722" cy="536.26" r="7"/>
		<g>
			<path d="M874.51,618.26c3.62,2.96,6.9,6.39,9.44,10.36c1.27,1.98,2.33,4.1,3.09,6.33c0.77,2.23,1.22,4.58,1.2,6.96
				c-0.01,4.76-1.95,9.42-5.03,13.01l-1.17,1.34c-0.4,0.44-0.87,0.81-1.3,1.22c-0.84,0.85-1.87,1.46-2.82,2.17
				c-2.03,1.23-4.21,2.22-6.49,2.9c-4.56,1.33-9.32,1.67-14,1.76l-7.03,0.11c-1.17,0.02-2.33,0.06-3.5,0.11
				c-1.16,0.04-2.28,0.18-3.38,0.46c-2.21,0.55-4.29,1.59-6.26,2.8c-1.98,1.19-3.86,2.62-5.99,3.72c-4.21,2.23-9.02,3.28-13.76,3.26
				v-1l0.49,0v1c-4.74,0.02-9.54-1.03-13.76-3.26c-2.13-1.1-4.01-2.53-5.99-3.72c-1.97-1.21-4.05-2.25-6.26-2.8
				c-1.11-0.28-2.23-0.42-3.38-0.46c-1.16-0.05-2.33-0.09-3.5-0.11l-7.03-0.11c-4.68-0.1-9.44-0.43-14-1.76
				c-2.28-0.68-4.45-1.67-6.49-2.9c-0.95-0.71-1.98-1.33-2.82-2.17c-0.43-0.41-0.9-0.78-1.3-1.22l-1.17-1.34
				c-3.07-3.59-5.01-8.25-5.03-13.01c-0.02-2.37,0.43-4.73,1.2-6.96c0.76-2.23,1.82-4.35,3.09-6.33c2.53-3.97,5.81-7.4,9.44-10.36
				c-3.57,3.02-6.78,6.5-9.23,10.49c-1.23,1.98-2.24,4.1-2.95,6.31c-0.72,2.21-1.12,4.52-1.06,6.84c0.07,4.64,1.99,9.14,5.02,12.61
				l1.15,1.29c0.39,0.42,0.85,0.78,1.27,1.17c0.82,0.81,1.83,1.4,2.76,2.08c1.99,1.17,4.1,2.12,6.33,2.75
				c4.46,1.25,9.14,1.54,13.81,1.64l7.02,0.09c1.17,0.01,2.35,0.05,3.52,0.1c1.18,0.04,2.4,0.19,3.56,0.48
				c2.34,0.57,4.51,1.66,6.53,2.88c2.04,1.22,3.9,2.63,5.95,3.67c4.09,2.15,8.7,3.14,13.32,3.11v1l-0.49,0v-1
				c4.62,0.03,9.23-0.96,13.32-3.11c2.05-1.04,3.91-2.45,5.95-3.67c2.02-1.22,4.18-2.31,6.53-2.88c1.16-0.29,2.38-0.44,3.56-0.48
				c1.18-0.05,2.35-0.09,3.52-0.1l7.02-0.09c4.66-0.09,9.34-0.39,13.81-1.63c2.23-0.64,4.34-1.58,6.33-2.75
				c0.92-0.68,1.93-1.27,2.76-2.08c0.42-0.39,0.88-0.75,1.27-1.17l1.15-1.29c3.03-3.48,4.95-7.98,5.02-12.61
				c0.06-2.31-0.34-4.63-1.06-6.84c-0.71-2.21-1.72-4.33-2.95-6.31C881.29,624.77,878.08,621.28,874.51,618.26z"/>
		</g>
		<g class="st46">
			<g>
				<path d="M683,695.01c0.66-1.87,1.67-3.61,2.8-5.24c0.54-0.83,1.2-1.58,1.8-2.38c0.66-0.74,1.3-1.51,1.98-2.23
					c2.73-2.9,5.86-5.4,9.13-7.65c3.27-2.27,6.77-4.17,10.3-5.96l5.43-2.43l5.56-2.11l-5.46,2.34l-5.35,2.56
					c-3.49,1.86-6.97,3.74-10.19,6.03c-3.27,2.2-6.37,4.68-9.14,7.5c-0.69,0.7-1.34,1.44-2.02,2.16c-0.61,0.77-1.28,1.51-1.84,2.32
					C684.81,691.49,683.73,693.17,683,695.01z"/>
			</g>
			<g>
				<path d="M665,728.01c-2.08-5.04-3.48-10.35-4.27-15.76c-0.79-5.4-0.84-10.94,0.03-16.35c0.44-2.7,1.2-5.35,2.19-7.9
					c0.47-1.29,1.1-2.51,1.7-3.74c0.69-1.18,1.35-2.39,2.18-3.48c3.1-4.54,7.46-8.07,12.17-10.77c-2.29,1.47-4.56,3-6.52,4.88
					c-1.04,0.87-1.92,1.92-2.87,2.88c-0.84,1.07-1.74,2.08-2.46,3.23c-0.8,1.1-1.43,2.3-2.11,3.46c-0.59,1.22-1.2,2.43-1.66,3.7
					c-0.97,2.52-1.7,5.15-2.12,7.82c-0.9,5.34-0.84,10.83-0.14,16.21c0.35,2.69,0.85,5.37,1.5,8.01
					C663.26,722.85,664.02,725.47,665,728.01z"/>
			</g>
		</g>
		<path class="st13" d="M818,674.26c-0.08,0-0.16-0.01-0.25-0.01c-0.08,0-0.16,0.01-0.25,0.01H818z"/>
		<path class="st33" d="M904,650.26c9-13-25-32-25-32l-2.7,2.02c4.86,4.53,9.11,10.34,10.64,16.74c1.48,6.23-0.07,12.18-4.02,17.18
			c-9.16,11.59-24.06,9.24-37,9.89c-4.89,0.25-8.6,2.69-12.54,5.31c-4.27,2.83-11.89,4.39-17.26,4.79
			c-5.29-0.29-9.98-1.8-14.49-4.79c-3.94-2.61-7.65-5.06-12.54-5.31c-12.94-0.66-27.85,1.69-37-9.89c-3.95-5-5.51-10.95-4.02-17.18
			c1.52-6.4,5.78-12.2,10.64-16.74l-2.7-2.02c0,0-34,19-25,32c0,0,8,7-22,13c13.38,1.88,26.79,3.87,39.89,7.22
			c7.15,1.83,13.58,7.23,20.94,7.04c10.17-0.27,13.42-2.52,20.17-0.27c9.26,3.09,18.18,10.97,28,12c9.82-1.03,17.74-8.91,27-12
			c6.75-2.25,10,0,20.17,0.27c7.36,0.19,13.79-5.21,20.94-7.04c13.1-3.36,26.51-5.35,39.89-7.22C896,657.26,904,650.26,904,650.26z"
			/>
		<path class="st29" d="M613.08,537.09c-1.18,13.36-4.45,26.23-11.28,37.85c-11.58-22.67-23.16-45.33-34.75-68
			c-4.54-8.89-9.12-17.87-11.68-27.52c-3.85-14.51-2.95-29.82-1.74-44.78c3.6-44.83,9.71-89.46,18.2-133.62
			c-6.9,0.89-24.63,5.83-25.01,15.53c0.38-9.65,10.01-21.63,16.31-28.51c7.61-8.31,16.99-15.03,27.42-19.34
			c-9.14-2.39-19.43,0.24-26.3,6.73c5.06-14.08,17.99-25.03,32.71-27.71c-8.33-1.57-14.22-11.07-11.9-19.23
			c5.11,7.43,13.08,12.84,21.88,14.84c-0.88-8.31-4.13-16.35-9.25-22.95c6.09-3.13,14.64,0.85,16.16,7.53
			c3.09-14.74,9.52-28.77,18.65-40.74c2.46,3.68,4.27,7.8,5.31,12.1c8-14.12,19.21-26.41,32.55-35.66
			c4.44-3.08,9.37-6.14,11.41-11.14c2.04-5-1.07-12.29-6.46-11.9c16.21,4.5,31.5,12.29,44.68,22.75
			c17.98-11.63,39.86-17.12,61.21-15.36c-8.25-5.57-17.52-9.6-27.22-11.84c16.46-2.03,32.43,5.2,48.44,9.54
			c16.01,4.34,35.45,4.91,46.7-7.28c1.18,7.97-4.01,16.41-11.65,18.95c60.51,17.47,123.38,42.16,160.14,93.3
			c23.45,32.63,33.76,72.88,39.59,112.64c4.05,27.6,6.18,55.48,6.36,83.38c0.07,10.12-0.12,20.29-2,30.23
			c-6.45,34.08-32.33,64.02-30.46,98.66c-18.99-31.31-13.59-70.8-12.95-107.42c0.48-27.27-2.06-54.59-7.55-81.3
			c-4.91-23.89-12.93-48.47-28.81-67.45c-18.61-22.24-46.08-29.51-74.26-29.36c-17.76,0.1-36.29,1.86-54.01,5.4
			c-7,1.4-14.03,2.65-20.42,5.9c-0.86,0.44-10.78,6.03-8.85,6.82c-11.93-4.87-26.53-7.36-39.31-8.89
			c-39.23-4.69-78.6,2.99-114.29,19.52c-11.44,5.3-24.67,14.96-23.62,28.87c1.83,24.32,5.94,48.47,12.25,72.03
			c-12.96,11.15-26.72,23.66-29.73,40.49c-1.37,7.65-0.33,15.49,0.68,23.19C612.54,500.98,614.63,519.47,613.08,537.09z"/>
		<g>
			<g>
				<path d="M1012.77,621.76c2.84-3.61,4.79-7.74,6.21-11.99c1.39-4.27,2.15-8.72,2.41-13.19l0.1-3.37
					c0.03-1.12-0.11-2.24-0.15-3.37c0-2.26-0.45-4.48-0.68-6.73c-0.08-1.13-0.41-2.22-0.6-3.34l-0.64-3.35
					c-0.55-2.21-1.16-4.41-1.66-6.66c0.92,2.1,1.78,4.23,2.6,6.39c0.62,2.21,1.37,4.41,1.83,6.68c0.42,2.28,0.91,4.55,1.03,6.88
					c0.08,1.16,0.22,2.32,0.21,3.48l-0.05,3.49c-0.3,4.65-1.19,9.29-2.94,13.62C1018.69,614.6,1016.23,618.71,1012.77,621.76z"/>
			</g>
			<g>
				<path d="M1047.77,550.76l0.6-6.16c0.21-2.05,0.4-4.11,0.56-6.16c0.33-4.11,0.66-8.22,0.7-12.32c0.05-2.05,0.04-4.1-0.13-6.13
					c-0.09-1.01-0.22-2.02-0.47-2.98c-0.25-0.93-0.61-1.96-1.3-2.35c-0.33-0.19-0.76-0.15-1.18,0.02c-0.42,0.19-0.83,0.47-1.2,0.79
					c-0.76,0.65-1.42,1.43-2.06,2.23c-1.29,1.6-2.4,3.33-3.52,5.07c0.92-1.85,1.96-3.64,3.13-5.37c0.61-0.85,1.25-1.67,2.03-2.41
					c0.39-0.37,0.83-0.7,1.34-0.96c0.51-0.24,1.21-0.37,1.81-0.07c0.59,0.29,0.96,0.8,1.22,1.29c0.25,0.5,0.44,1.01,0.57,1.53
					c0.28,1.03,0.43,2.08,0.54,3.12c0.21,2.08,0.25,4.16,0.22,6.24c-0.13,4.15-0.45,8.28-0.94,12.38
					C1049.19,542.62,1048.58,546.71,1047.77,550.76z"/>
			</g>
			<path class="st13" d="M992.77,640.76c-1.21-3.13-1.22-6.54-1.1-9.76c0.27-6.98,1.55-13.97,3.89-20.75c2.07-6,6.21-11.7,6.21-18"
				/>
		</g>
		<g class="st46">
			<g>
				<path d="M941.85,695.01c-0.73-1.84-1.81-3.52-3-5.09c-0.56-0.81-1.23-1.54-1.84-2.32c-0.67-0.72-1.32-1.46-2.02-2.16
					c-2.77-2.82-5.86-5.3-9.13-7.5c-3.22-2.29-6.7-4.17-10.19-6.03l-5.35-2.56l-5.46-2.34l5.56,2.11l5.43,2.43
					c3.54,1.79,7.04,3.69,10.3,5.96c3.27,2.25,6.4,4.75,9.13,7.65c0.68,0.72,1.32,1.49,1.98,2.23c0.6,0.8,1.25,1.55,1.8,2.38
					C940.18,691.4,941.19,693.14,941.85,695.01z"/>
			</g>
			<g>
				<path d="M959.85,728.01c0.98-2.54,1.74-5.16,2.38-7.8c0.65-2.64,1.16-5.31,1.5-8.01c0.7-5.38,0.76-10.86-0.14-16.21
					c-0.42-2.68-1.16-5.3-2.12-7.82c-0.46-1.27-1.07-2.48-1.66-3.7c-0.68-1.17-1.31-2.37-2.11-3.46c-0.72-1.15-1.63-2.16-2.46-3.23
					c-0.95-0.97-1.82-2.01-2.87-2.88c-1.96-1.89-4.23-3.41-6.52-4.88c4.71,2.7,9.07,6.23,12.17,10.77c0.83,1.09,1.49,2.3,2.18,3.48
					c0.6,1.23,1.23,2.45,1.7,3.74c0.99,2.55,1.75,5.2,2.19,7.9c0.87,5.41,0.81,10.94,0.03,16.35
					C963.33,717.66,961.93,722.98,959.85,728.01z"/>
			</g>
		</g>
		<circle class="st34" cx="728" cy="537.26" r="2.5"/>
		<path class="st29" d="M947.26,494.96c3.36-0.78,6.7-1.64,10.08-2.04c0.63,2-2.13,6.26-4.5,6.35c6.71-0.25,13.58,0.68,19.9,2.99
			c-1.66,0.74-3.11,1.94-4.17,3.42c0.64-0.9,7.98,0.42,8.92,0.85c-0.99,3.46-2.03,8.65-4.9,11.08c-3.39,2.88-7.34,1.37-10.97,0.27
			c-5-1.51-10.23-2.48-15.31-3.69c-13.04-3.1-25.96-7.05-39.44-7.27c-18.58-0.3-36.29,5.15-53.53,11.57
			c-3.65,1.36-6.92,3.38-10.71,4.47c-2.69,0.77-3.82-0.11-3.17-2.77c1.44-5.83,3-11.23,8.99-12.85c7.65-2.07,14.12-6.44,21.42-9.35
			c16.93-6.75,35.33-2.87,52.79-1.58c5.64,0.42,11.3,0.46,16.93-0.08C942.21,496.08,944.75,495.54,947.26,494.96z"/>
		<path class="st30" d="M895,579.71c-12.29,1.33-24.65-2.31-34.26-10.09c-13.85-11.22-27.51-29.69,0.26-47.36
			c30.85-19.63,74.97-8.29,98.59,0.24c8.82,3.19,11.65,14.31,5.32,21.23C952.54,557.27,929.6,575.96,895,579.71z"/>
		<path class="st54" d="M918.24,525.99c7.43,1.69,15.67,4.65,24.76,9.27c0,0-6.5,6.49-25.56,10.38c2.22-2.87,3.56-6.47,3.56-10.38
			C921,531.84,919.98,528.66,918.24,525.99z"/>
		<path class="st54" d="M861,547.26c0-1.23,8.67-16.77,29.02-21.66c-1.9,2.74-3.02,6.07-3.02,9.66c0,5.27,2.4,9.97,6.16,13.09
			C884.02,548.68,873.37,548.42,861,547.26z"/>
		<path class="st45" d="M887,535.26c0-3.59,1.12-6.91,3.02-9.66c7.69-1.85,17.04-2.17,28.22,0.38c1.74,2.67,2.76,5.85,2.76,9.27
			c0,3.91-1.34,7.51-3.56,10.38c-6.54,1.33-14.55,2.36-24.29,2.71C889.4,545.23,887,540.53,887,535.26z"/>
		<circle class="st10" cx="904" cy="535.26" r="7"/>
		<circle class="st34" cx="911" cy="536.26" r="2.5"/>
		<g>
			<path class="st29" d="M726,193.26c0,0,12,71,96,89"/>
			<path class="st35" d="M726,193.26c1.67,5.54,3.82,10.87,6.27,16.04c2.42,5.18,5.23,10.15,8.26,14.94
				c6.15,9.54,13.4,18.32,21.81,25.86c4.17,3.8,8.59,7.34,13.27,10.52c2.28,1.68,4.74,3.09,7.11,4.63c1.21,0.73,2.46,1.4,3.69,2.11
				c1.23,0.72,2.45,1.43,3.73,2.05c10.09,5.25,20.8,9.39,31.86,12.84c-11.5-1.41-22.84-4.59-33.56-9.33
				c-1.36-0.55-2.67-1.2-3.99-1.85c-1.31-0.66-2.63-1.3-3.92-1.99c-2.54-1.46-5.13-2.87-7.57-4.52c-2.5-1.55-4.85-3.33-7.23-5.07
				c-1.17-0.89-2.28-1.86-3.43-2.79c-1.15-0.92-2.25-1.9-3.33-2.9c-8.76-7.89-16.13-17.3-21.79-27.58c-2.85-5.13-5.25-10.49-7.18-16
				C728.15,204.69,726.59,199.04,726,193.26z"/>
		</g>
		<g>
			<path class="st29" d="M686,173.26c0,0-15,92,69,110"/>
			<path class="st35" d="M686,173.26c-0.55,12.03,0.27,24,2.38,35.65c2.19,11.61,5.78,22.96,11.55,33.11l1.05,1.92l1.18,1.84
				c0.8,1.22,1.52,2.49,2.42,3.63c0.87,1.17,1.7,2.37,2.59,3.51l2.82,3.34c3.9,4.32,8.22,8.27,12.96,11.74
				c9.55,6.84,20.54,11.68,32.05,15.26c-11.94-1.55-23.79-5.46-34.24-12.03l-3.84-2.59c-0.65-0.41-1.25-0.91-1.85-1.4l-1.8-1.46
				l-1.8-1.46c-0.58-0.51-1.12-1.06-1.68-1.6l-1.67-1.61c-0.56-0.54-1.13-1.06-1.63-1.66c-4.28-4.49-7.86-9.62-10.92-14.99
				c-6.11-10.79-9.58-22.86-11.03-34.97c-0.76-6.06-0.98-12.17-0.78-18.23C684.04,185.2,684.61,179.15,686,173.26z"/>
		</g>
		<g>
			<path class="st29" d="M788,198.26c0,0-5,61,79,79"/>
			<path class="st35" d="M788,198.26c0.32,5.08,1.3,10.03,2.69,14.82c1.38,4.79,3.22,9.42,5.44,13.82c2.28,4.37,4.9,8.55,7.95,12.4
				c3.03,3.86,6.42,7.42,10.08,10.7c0.93,0.8,1.84,1.63,2.78,2.42l2.91,2.27c0.94,0.79,1.99,1.45,2.99,2.17
				c1.02,0.7,2,1.45,3.06,2.08l3.14,1.98c1.04,0.67,2.15,1.23,3.23,1.85c2.14,1.26,4.38,2.35,6.6,3.49
				c8.95,4.42,18.44,7.84,28.13,10.99c-10.12-1.12-20.16-3.55-29.71-7.43c-9.55-3.84-18.68-9.11-26.46-16.1
				c-3.87-3.5-7.45-7.35-10.53-11.58c-3.09-4.22-5.69-8.8-7.69-13.61c-2.04-4.8-3.44-9.83-4.3-14.92
				C787.55,208.51,787.21,203.32,788,198.26z"/>
		</g>
		<g>
			<path class="st29" d="M849.5,192.76c0,0-23,39,40,68"/>
			<path class="st35" d="M849.5,192.76c-1.26,3.51-2.01,7.12-2.3,10.71c-0.35,3.59-0.18,7.17,0.43,10.63
				c1.18,6.95,4.24,13.39,8.45,19.05c4.26,5.63,9.48,10.63,15.23,15.07c5.73,4.49,11.92,8.46,18.2,12.54
				c-7.16-2.17-14.03-5.31-20.46-9.32c-6.41-4.02-12.3-9.11-16.98-15.31c-4.63-6.21-7.81-13.76-8.33-21.57
				c-0.15-1.94-0.1-3.9,0.06-5.82c0.24-1.92,0.5-3.83,1-5.69C845.79,199.36,847.25,195.78,849.5,192.76z"/>
		</g>
		<g>
			<path class="st29" d="M624,244.26c4,12,9,32,46,39"/>
			<path class="st35" d="M624,244.26c1.36,2.38,2.51,4.82,3.76,7.16c0.65,1.15,1.23,2.33,1.93,3.44l0.99,1.67l1.07,1.61l0.52,0.81
				l0.58,0.76l1.14,1.53c0.8,0.99,1.65,1.93,2.46,2.89c0.92,0.87,1.77,1.8,2.7,2.65c0.97,0.8,1.9,1.67,2.89,2.44
				c3.96,3.16,8.5,5.62,13.21,7.85c4.69,2.33,9.71,4.02,14.75,6.17c-5.43-0.1-10.92-0.79-16.17-2.51
				c-5.25-1.65-10.42-4.04-14.86-7.58c-1.1-0.89-2.14-1.86-3.2-2.8c-1-1.01-1.94-2.08-2.88-3.13c-0.84-1.14-1.72-2.26-2.48-3.45
				c-0.7-1.23-1.5-2.4-2.05-3.69l-0.88-1.9c-0.27-0.64-0.51-1.3-0.75-1.95c-0.51-1.29-0.86-2.63-1.24-3.95
				C624.83,249.63,624.31,246.98,624,244.26z"/>
		</g>
		<g>
			<path class="st29" d="M658,219.26c0,0-7,25,44,63"/>
			<path class="st35" d="M658,219.26c-0.04,6.72,2.6,12.81,5.61,18.46l1.14,2.12l1.3,2.05c0.87,1.36,1.68,2.75,2.68,4.03
				c0.97,1.3,1.84,2.66,2.85,3.93l3.05,3.8c0.96,1.31,2.12,2.47,3.19,3.7c1.08,1.22,2.13,2.47,3.24,3.68
				c1.14,1.18,2.28,2.35,3.4,3.55c1.15,1.18,2.21,2.44,3.42,3.56c1.18,1.15,2.36,2.31,3.51,3.49c1.17,1.17,2.28,2.42,3.52,3.52
				c2.39,2.31,4.8,4.61,7.09,7.11c-2.95-1.61-5.79-3.41-8.64-5.21c-2.79-1.87-5.45-3.94-8.12-6c-1.36-1-2.57-2.18-3.84-3.3
				c-1.26-1.12-2.5-2.28-3.75-3.42c-1.21-1.18-2.34-2.46-3.51-3.68c-1.13-1.27-2.34-2.46-3.37-3.82l-3.15-4.03
				c-1.01-1.37-1.91-2.84-2.85-4.27c-0.45-0.73-0.96-1.42-1.35-2.19l-1.2-2.28l-1.18-2.29l-0.99-2.39c-0.32-0.8-0.66-1.59-0.94-2.4
				c-0.25-0.83-0.51-1.65-0.74-2.49l-0.35-1.24c-0.11-0.42-0.17-0.85-0.26-1.27l-0.48-2.54l-0.21-2.58
				c-0.08-0.85-0.02-1.73-0.01-2.58c0.02-0.85,0.16-1.72,0.26-2.56C657.5,220.88,657.67,220.04,658,219.26z"/>
		</g>
		<g>
			<path class="st29" d="M992,273.26c-11,18-16,26-14,34"/>
			<path class="st35" d="M992,273.26c-0.75,3.21-1.93,6.17-3.2,9.04c-1.29,2.87-2.73,5.62-4.18,8.32c-1.43,2.7-2.94,5.32-4.17,7.98
				c-0.62,1.33-1.16,2.67-1.6,4.09c-0.41,1.42-0.67,2.91-0.84,4.57c-0.89-1.4-1.4-3.05-1.61-4.76c-0.16-1.71-0.02-3.44,0.3-5.1
				c0.68-3.32,2.01-6.33,3.52-9.15c1.52-2.83,3.29-5.45,5.22-7.97C987.39,277.79,989.48,275.4,992,273.26z"/>
		</g>
		<g>
			<path class="st29" d="M1002,355.26c7-15,20-21,20-21"/>
			<path class="st35" d="M1002,355.26c0.16-2.64,0.9-5.19,2.06-7.49c1.13-2.34,2.67-4.46,4.44-6.34c1.77-1.89,3.83-3.5,6.09-4.77
				c2.26-1.25,4.72-2.23,7.41-2.4c-1.72,2.02-3.37,3.78-5.01,5.52l-4.86,5.09c-1.6,1.69-3.22,3.36-4.83,5.11
				C1005.61,351.69,1004.03,353.5,1002,355.26z"/>
		</g>
		<g>
			<path class="st29" d="M1007,311.26c0,0-11,3-15,16"/>
			<path class="st35" d="M1007,311.26l-4.01,4.14c-1.24,1.27-2.44,2.48-3.57,3.75c-1.13,1.27-2.31,2.5-3.45,3.86
				c-0.63,0.65-1.17,1.37-1.84,2.07c-0.66,0.7-1.27,1.46-2.12,2.19c-0.11-0.53-0.15-1.05-0.17-1.58c-0.02-0.53-0.05-1.06,0.03-1.57
				c0.14-1.02,0.3-2.07,0.68-3.03c0.65-1.99,1.81-3.78,3.21-5.33c1.41-1.55,3.17-2.78,5.08-3.62
				C1002.74,311.32,1004.85,310.85,1007,311.26z"/>
		</g>
		<g>
			<path class="st29" d="M911.5,211.76c0,0-8.65,31,43.67,65.5"/>
			<path class="st35" d="M911.5,211.76c-0.17,3.48,0.25,6.87,1.06,10.14l0.26,1.23l0.36,1.21l0.73,2.4
				c0.63,1.56,1.17,3.13,1.84,4.65l1.08,2.25c0.38,0.74,0.65,1.53,1.1,2.24c0.85,1.44,1.66,2.89,2.48,4.34l2.81,4.15l0.69,1.04
				l0.78,0.99l1.55,1.98c1.02,1.33,2.01,2.69,3.18,3.9l3.34,3.79c0.53,0.66,1.15,1.24,1.75,1.83l1.79,1.8
				c1.21,1.19,2.36,2.45,3.58,3.63c1.26,1.14,2.52,2.29,3.77,3.47c1.26,1.16,2.46,2.4,3.77,3.51c2.6,2.25,5.22,4.5,7.73,6.95
				c-3.13-1.52-6.16-3.26-9.2-4.98c-2.94-1.88-5.79-3.92-8.64-5.97c-1.38-1.08-2.69-2.25-4.03-3.4l-1.99-1.74
				c-0.66-0.59-1.34-1.15-1.93-1.8c-2.42-2.58-4.98-5.03-7.07-7.92l-1.62-2.11l-0.81-1.06c-0.25-0.37-0.49-0.75-0.72-1.13
				l-2.82-4.55c-0.8-1.6-1.59-3.21-2.36-4.82c-0.74-1.63-1.27-3.35-1.9-5.03c-0.32-0.83-0.47-1.73-0.71-2.59
				c-0.21-0.87-0.45-1.73-0.62-2.61l-0.37-2.66l-0.18-1.32l-0.06-1.34C909.98,218.68,910.24,215.05,911.5,211.76z"/>
		</g>
		<path class="st14" d="M979.5,714.76c-19.9-4.44-36.57,26.67-51.83,20.14c-2.59-1.11-5.69-0.47-8.07,1.03
			c-2.39,1.51-4.18,3.78-5.78,6.1c-7.66,11.12-11.79,24.08-16.36,36.66c-4.56,12.55-10.22,24.59-16,36.61
			c-6.42,13.35-13.68,26.99-25.67,35.69c-12.78,9.28-28.76,11.51-44.86,11.48c-0.01-0.33-0.02-0.65-0.03-0.98
			c-0.88,0.1-1.77,0.19-2.66,0.25c-2.53,0.17-5.08,0.32-7.64,0.45c-2.57-0.12-5.12-0.28-7.64-0.45c-0.89-0.06-1.77-0.15-2.66-0.25
			c-0.01,0.33-0.02,0.65-0.03,0.98c-16.1,0.03-32.08-2.21-44.86-11.48c-11.99-8.7-19.25-22.34-25.67-35.69
			c-5.78-12.02-11.44-24.07-16-36.61c-4.57-12.57-8.7-25.54-16.36-36.66c-1.6-2.32-3.4-4.6-5.78-6.1c-2.39-1.51-5.48-2.14-8.07-1.03
			c-15.26,6.53-31.93-24.58-51.83-20.14c-1.05,0.23-1.43,1.87-1.35,4.41c12.13,57.48,36.51,112.23,85.37,151.13
			c20.64,16.43,43.6,32.09,69.74,37.92c24.15,5.39,53.27,2.5,75.81-7.62c17.14-7.7,32.65-18.64,47.3-30.3
			c35.71-28.43,58.34-65.32,72.67-105.56C971.42,757.68,985.16,716.03,979.5,714.76z"/>
		<g class="st31">
			<path d="M947.23,532.89c-7.18-3.39-14.59-6.24-22.1-8.46c-3.76-1.1-7.55-2.05-11.36-2.73c-3.8-0.73-7.64-1.21-11.46-1.32
				c-3.81-0.15-7.62-0.01-11.33,0.6c-1.86,0.29-3.68,0.73-5.44,1.2c-0.87,0.3-1.76,0.55-2.63,0.87c-0.87,0.33-1.74,0.65-2.59,1.04
				c-3.44,1.47-6.76,3.35-10.04,5.44c-1.63,1.06-3.27,2.13-4.91,3.26c-1.63,1.13-3.28,2.28-5.03,3.35l-0.67-0.74
				c4.75-6.45,10.64-12.53,18.26-16.38c1.88-0.98,3.88-1.77,5.92-2.44c2.08-0.62,4.15-1.07,6.24-1.36c4.18-0.6,8.38-0.74,12.53-0.46
				c4.15,0.31,8.23,0.99,12.22,1.95c3.98,1.02,7.88,2.25,11.66,3.74c3.77,1.52,7.47,3.2,11.02,5.14c3.56,1.92,7,4.03,10.25,6.45
				L947.23,532.89z"/>
		</g>
		<g class="st36">
			<path d="M858.5,557.71c0,0,41.04,10.99,73.52-4.85"/>
			<path d="M858.5,557.71c3.09,0.53,6.16,1.05,9.27,1.37c3.09,0.39,6.2,0.67,9.3,0.91c6.21,0.43,12.42,0.57,18.62,0.3l4.64-0.25
				l4.62-0.48c1.55-0.11,3.07-0.38,4.6-0.63l2.3-0.36l1.15-0.17l1.13-0.25l4.55-1c1.52-0.33,2.98-0.85,4.48-1.26l2.25-0.63
				c0.75-0.22,1.46-0.53,2.19-0.8c1.46-0.56,2.92-1.09,4.41-1.61c-5.52,2.94-11.39,5.37-17.54,6.81c-6.13,1.45-12.41,2.4-18.71,2.61
				c-6.3,0.23-12.61,0-18.85-0.75C870.68,560.78,864.48,559.58,858.5,557.71z"/>
		</g>
		<g class="st36">
			<path d="M767.41,555.45c0,0-40.29,13.47-73.68-0.36"/>
			<path d="M767.41,555.45c-5.86,2.23-11.97,3.81-18.15,4.94c-6.19,1.14-12.47,1.74-18.77,1.9c-6.3,0.17-12.62-0.39-18.83-1.47
				c-6.22-1.06-12.24-3.14-17.93-5.73c1.51,0.43,3.01,0.87,4.5,1.34c0.75,0.22,1.48,0.48,2.24,0.66l2.29,0.49
				c1.52,0.32,3.02,0.74,4.55,0.98l4.6,0.72l1.15,0.18l1.16,0.1l2.31,0.22c1.54,0.15,3.08,0.33,4.63,0.34l4.64,0.2l4.65-0.04
				c6.2-0.12,12.4-0.63,18.56-1.44c3.08-0.43,6.16-0.89,9.22-1.47C761.32,556.87,764.36,556.17,767.41,555.45z"/>
		</g>
	</g>
</g>
</svg>
