<svg id="Tram" xmlns="http://www.w3.org/2000/svg" viewBox="0 0 3061.42 5442.52"><defs><style>.cls-1{fill:#676868;}.cls-2{fill:#4c4d4c;}.cls-3{fill:#cd113e;}.cls-4{fill:#9b102d;}.cls-5{fill:#c6c6c6;}.cls-6{fill:#fff;}.cls-7{fill:#ffde00;}.cls-8{fill:#fdc60e;}.cls-9{fill:#1d1d1b;stroke:#3c3c3b;stroke-miterlimit:10;stroke-width:0.25px;}.cls-10{fill:#00475c;}.cls-11{fill:#053a50;}</style></defs><rect class="cls-1" x="1426.05" y="2865.63" width="13.96" height="59.32" rx="4.18"/><rect class="cls-2" x="1439.31" y="2865.63" width="4.06" height="66.78" rx="1.44"/><rect class="cls-2" x="1421.99" y="2865.63" width="4.06" height="66.78" rx="1.44"/><rect class="cls-1" x="1627.91" y="2865.82" width="13.96" height="59.32" rx="4.18"/><rect class="cls-2" x="1641.17" y="2865.82" width="4.06" height="66.78" rx="1.44"/><rect class="cls-2" x="1623.85" y="2865.82" width="4.06" height="66.78" rx="1.44"/><polygon class="cls-3" points="1393.08 2473.39 1675.1 2473.39 1687.85 2719.82 1381.74 2719.82 1393.08 2473.39"/><rect class="cls-3" x="1376.9" y="2432.51" width="315.78" height="46.57" rx="16.52"/><rect class="cls-4" x="1381.74" y="2704.7" width="306.11" height="149.73"/><ellipse class="cls-5" cx="1534.79" cy="2804.92" rx="30.61" ry="29.15"/><ellipse class="cls-6" cx="1534.79" cy="2804.92" rx="24.85" ry="23.67"/><path class="cls-7" d="M1521.34,2491.76h27c4.48,0,8.42-3.78,8.83-8.61l-1-33.17c.55-6.63-3.49-12.26-9.07-12.26h-25.73c-5.57,0-9.62,5.63-9.07,12.26l.26,33.17C1512.92,2488,1516.86,2491.76,1521.34,2491.76Z"/><path class="cls-8" d="M1554,2441.58a8.47,8.47,0,0,0-7-3.86h-25.73c-5.57,0-9.62,5.63-9.07,12.26l.26,33.17a9.61,9.61,0,0,0,.64,2.74"/><path class="cls-9" d="M1524,2473.24l3.92-.36a6.75,6.75,0,0,0,1.9,4,5.2,5.2,0,0,0,3.59,1.25,6.27,6.27,0,0,0,3.3-.86,7.18,7.18,0,0,0,2.32-2.3,13.41,13.41,0,0,0,1.51-3.88,20.33,20.33,0,0,0,.61-5c0-.18,0-.45,0-.81a9.29,9.29,0,0,1-3.34,3.15,9,9,0,0,1-4.58,1.21,9.27,9.27,0,0,1-7-3,10.94,10.94,0,0,1-2.85-7.88,11.16,11.16,0,0,1,3-8.12,9.94,9.94,0,0,1,7.45-3.08,10.65,10.65,0,0,1,5.92,1.74,10.93,10.93,0,0,1,4.07,5q1.39,3.22,1.39,9.33a30.23,30.23,0,0,1-1.38,10.13,12,12,0,0,1-4.1,5.74,10.66,10.66,0,0,1-6.4,2,8.77,8.77,0,0,1-9.32-8.23Zm16.68-14.64a8,8,0,0,0-1.87-5.57,5.85,5.85,0,0,0-4.49-2.06,6.2,6.2,0,0,0-4.73,2.22,8.23,8.23,0,0,0-2,5.75,7.09,7.09,0,0,0,1.91,5.15,6.3,6.3,0,0,0,4.72,2,6.06,6.06,0,0,0,4.65-2A7.82,7.82,0,0,0,1540.7,2458.6Z"/><rect class="cls-2" x="1376.94" y="2849.66" width="313.04" height="23.44" rx="6.59"/><rect class="cls-1" x="1390.76" y="2878.64" width="285.18" height="8.16" rx="2.9"/><rect class="cls-1" x="1390.76" y="2895.14" width="285.18" height="8.16" rx="2.9"/><rect class="cls-2" x="1459.71" y="2402.13" width="147.01" height="30.38" rx="6.59"/><rect class="cls-2" x="1467.32" y="2374.13" width="130.95" height="11.25" rx="3.99"/><rect class="cls-2" x="1487.76" y="2250.05" width="94.06" height="6.4" rx="2.27"/><rect class="cls-2" x="1579.47" y="2379.76" width="4.06" height="26.12" rx="1.44"/><rect class="cls-2" x="1483.44" y="2379.76" width="4.06" height="26.12" rx="1.44"/><path class="cls-2" d="M1502.18,2376.73h0a2.61,2.61,0,0,1-3.34-1.62l-20.76-59.26a2.71,2.71,0,0,1,1.57-3.42h0A2.6,2.6,0,0,1,1483,2314l20.76,59.26A2.7,2.7,0,0,1,1502.18,2376.73Z"/><path class="cls-2" d="M1589.93,2317.5h0a2.6,2.6,0,0,1-3.34-1.61l-20.76-59.26a2.72,2.72,0,0,1,1.58-3.43h0a2.6,2.6,0,0,1,3.33,1.62l20.77,59.26A2.71,2.71,0,0,1,1589.93,2317.5Z"/><path class="cls-2" d="M1567.41,2376.73h0a2.6,2.6,0,0,0,3.33-1.62l20.77-59.26a2.71,2.71,0,0,0-1.58-3.42h0a2.6,2.6,0,0,0-3.34,1.61l-20.76,59.26A2.72,2.72,0,0,0,1567.41,2376.73Z"/><path class="cls-2" d="M1479.65,2317.5h0a2.6,2.6,0,0,0,3.34-1.61l20.76-59.26a2.7,2.7,0,0,0-1.57-3.43h0a2.61,2.61,0,0,0-3.34,1.62l-20.76,59.26A2.71,2.71,0,0,0,1479.65,2317.5Z"/><path class="cls-10" d="M1590,2683H1476.67a38.54,38.54,0,0,1-38.43-38.42L1444.5,2534a38.54,38.54,0,0,1,38.42-38.43h100.83a38.54,38.54,0,0,1,38.42,38.43l6.25,110.57A38.53,38.53,0,0,1,1590,2683Z"/><path class="cls-6" d="M1590,2684.08H1476.67a39.57,39.57,0,0,1-39.52-39.52v-.06L1443.4,2534a39.56,39.56,0,0,1,39.52-39.48h100.83a39.56,39.56,0,0,1,39.52,39.48l6.25,110.58v0A39.57,39.57,0,0,1,1590,2684.08Zm-150.66-39.49a37.37,37.37,0,0,0,37.33,37.3H1590a37.38,37.38,0,0,0,37.33-37.3L1621.08,2534v0a37.38,37.38,0,0,0-37.33-37.34H1482.92a37.38,37.38,0,0,0-37.33,37.34v.06Z"/><path class="cls-11" d="M1610.6,2508.36c-6.9-6.56-15.54-11.24-25.76-11.24H1484a38.54,38.54,0,0,0-38.43,38.42l-6.25,110.58c0,7.1,2.76,13.44,6.16,19.17Z"/><path class="cls-11" d="M1383.59,2679.55h6.58c21.14,0,38.43-16.87,38.43-37.49l4.43-107.89c0-18.09-21.51-33.28-41-36.75Z"/><path class="cls-6" d="M1390.17,2680.65h-7.72l8.49-184.53,1.23.22a63,63,0,0,1,28.36,13.13c8.77,7.28,13.6,16.05,13.6,24.7v0l-4.43,107.87C1429.68,2663.35,1412,2680.65,1390.17,2680.65Zm-5.43-2.19h5.43c20.59,0,37.33-16.33,37.33-36.4v0l4.43-107.87c0-8-4.56-16.14-12.81-23a60.79,60.79,0,0,0-26.12-12.42Z"/><path class="cls-11" d="M1685.76,2679.55h-7.14c-21.13,0-38.43-16.87-38.43-37.49l-4.43-107.89c0-18.09,21-33.2,40.59-36.67Z"/><path class="cls-6" d="M1686.92,2680.65h-8.3c-21.78,0-39.51-17.3-39.52-38.57l-4.43-107.91c0-18.77,21.53-34.2,41.49-37.74l1.22-.22Zm-50.07-146.51,4.44,107.92c0,20.07,16.74,36.4,37.33,36.4h6l-9.29-179.65a59.7,59.7,0,0,0-25.89,12.38C1641.33,2518,1636.86,2526.15,1636.85,2534.14Z"/></svg>