<?xml version="1.0" encoding="utf-8"?>
<!-- Generator: Adobe Illustrator 25.1.0, SVG Export Plug-In . SVG Version: 6.00 Build 0)  -->
<svg version="1.1" id="Layer_1" xmlns="http://www.w3.org/2000/svg" xmlns:xlink="http://www.w3.org/1999/xlink" x="0px" y="0px"
	 viewBox="0 0 4409.4 8192" style="enable-background:new 0 0 4409.4 8192;" xml:space="preserve">
<style type="text/css">
	.st0{filter:url(#Adobe_OpacityMaskFilter);}
	.st1{mask:url(#SVGID_1_);}
	.st2{fill:#00475C;stroke:#000000;stroke-width:1.0138;stroke-miterlimit:9.2533;}
	.st3{fill:#C1C1C1;}
	.st4{fill:#9B102D;}
	.st5{fill:#CD113E;}
	.st6{fill:#00475C;stroke:#FFFFFF;stroke-width:1.8246;stroke-miterlimit:6.0819;}
	.st7{fill:#053A50;}
	.st8{fill:#053A50;stroke:#FFFFFF;stroke-width:1.8246;stroke-miterlimit:6.0819;}
	.st9{fill:#EDEDED;}
	.st10{fill:#4C4D4C;}
	.st11{fill:#676868;}
	.st12{fill:#FFDE00;}
	.st13{fill:#FDC60E;}
	.st14{fill:#1D1D1B;}
	.st15{fill:#3C3C3B;}
	.st16{fill:#C6C6C6;}
</style>
<g id="Layer_2_1_">
	<defs>
		<filter id="Adobe_OpacityMaskFilter" filterUnits="userSpaceOnUse" x="164.9" y="113.2" width="4194.4" height="7988.8">
			<feFlood  style="flood-color:white;flood-opacity:1" result="back"/>
			<feBlend  in="SourceGraphic" in2="back" mode="normal"/>
		</filter>
	</defs>
	<mask maskUnits="userSpaceOnUse" x="164.9" y="113.2" width="4194.4" height="7988.8" id="SVGID_1_">
		<g class="st0">
			
				<image style="overflow:visible;" width="4200" height="7994" xlink:href="F68CE41A46DBD1A7.jpg"  transform="matrix(1 0 0 1 162 111)">
			</image>
		</g>
	</mask>
	<g class="st1">
		<g>
			<ellipse class="st2" cx="2262.1" cy="4107.6" rx="2096.7" ry="3993.9"/>
		</g>
	</g>
</g>
<g id="Layer_1_1_">
	<g id="Layer_2_2_">
		<g>
			<path class="st3" d="M1872.1,180.1v7854.6c15.1,9.3,30.4,6.3,46.3,14.3V159.4C1902.6,165.8,1887.1,172.7,1872.1,180.1z"/>
			<path class="st3" d="M2547.4,145.5V8071c15.8-6.8,31.2-14.2,46.3-22.1V163.1C2578.6,156.8,2563.2,150.9,2547.4,145.5z"/>
		</g>
	</g>
	<g id="Tram">
		<path class="st4" d="M1557.7,781l338-93.8c12.1-3.3,24.5-5.1,37.1-5.1l532-0.9c12.8,0,25.5,1.8,37.8,5.2l329.2,92.2
			c60.1,16.8,101.7,71.6,101.9,134.1l9.3,5718.7c0.1,42.2-15.8,82.9-44.5,114l-282.1,278.2c-31.6,34.3-76.2,53.9-122.9,53.9
			l-564.3,0.9c-45.4,0.1-88.9-18.3-120.6-50.9l-296.5-279.4c-30.3-31.2-47.3-72.9-47.3-116.4l-9.3-5716
			C1455.4,852.9,1497.2,797.8,1557.7,781z"/>
		<path class="st5" d="M1558.9,1544.1l337.8-213.8c12.1-3.1,24.6-4.7,37.1-4.7l532-0.8c12.8,0,25.4,1.6,37.8,4.8l329.4,212.1
			c60.1,15.6,102,190.2,102.1,248.2l7.6,4685.6c0.1,39.2-15.8,77-44.5,105.8L2616,6839.4c-31.6,31.8-76.2,50-122.9,50.1l-564.3,0.9
			c-45.4,0.1-88.9-16.9-120.6-47.2l-296.5-259.3c-30.3-29-47.3-67.7-47.3-108.1l-7.6-4683.1
			C1456.8,1734.5,1498.4,1559.6,1558.9,1544.1z"/>
		<path class="st6" d="M2026.3,6269.6l354-0.6c37.3-0.1,69.9,25,79.5,60.9l96.2,360c13.9,52.1-25.3,103.3-79.2,103.4l-545.2,0.9
			c-53.9,0.1-93.3-50.9-79.6-103.1l94.9-360.4C1956.5,6294.8,1989,6269.7,2026.3,6269.6z"/>
		<path class="st7" d="M2417.4,6281.5c-10.9-5.3-22.2-10.4-35-10.3l-354,0.6c-37.3,0.1-69.8,25.2-79.3,61.2l-95,360.3
			c-6.4,24.3,1.6,47.7,14.4,66.5L2417.4,6281.5z"/>
		<path class="st8" d="M1548,6154.6l329.1,223.1c6.4,5,10.1,12.7,10.1,20.7l-62.8,271c0,22.2-25.6,34.7-43,20.8l-265.8-210.5
			c-6.4-5-10.1-12.7-10.1-20.7l-0.5-283.6C1504.8,6153.2,1530.5,6140.8,1548,6154.6z"/>
		<path class="st8" d="M2861.8,6152.5l-328.4,224.1c-6.3,5.1-10,12.7-10,20.8l63.8,270.8c0,22.2,25.7,34.6,43.1,20.7l265.1-211.3
			c6.3-5.1,10-12.7,10-20.8l-0.5-283.6C2904.9,6150.9,2879.2,6138.6,2861.8,6152.5z"/>
		<path class="st9" d="M1768,1611.7l855.5-1.4c83.6-0.1,152,63.7,152.1,141.8l6.6,4032.8c0.1,78.1-68.1,142.1-151.7,142.3
			l-855.5,1.4c-83.6,0.1-152-63.7-152.1-141.8l-6.6-4032.8C1616.2,1675.9,1684.4,1611.9,1768,1611.7z"/>
		<path class="st10" d="M1728.8,1704.7l934.1-1.5c23.2,0,42.1,18.8,42.1,42l6.3,4015.5c0,23.2-18.8,42.1-42,42.1l-934.1,1.5
			c-23.2,0-42.1-18.8-42.1-42l-6.3-4015.5C1686.8,1723.6,1705.5,1704.8,1728.8,1704.7z"/>
		<rect x="1994.3" y="1701" class="st11" width="399.4" height="4103.8"/>
		<path class="st6" d="M2016.4,1282.6l354-0.6c37.3-0.1,69.8-25.2,79.3-61.2l95-360.3c13.8-52.2-25.6-103.2-79.6-103.1l-545.2,0.9
			c-53.9,0.1-93.2,51.3-79.2,103.4l96.2,360C1946.4,1257.7,1979.1,1282.7,2016.4,1282.6z"/>
		<path class="st7" d="M2408.1,1269.3c-11.1,5.5-23.3,8.4-35.7,8.5l-354,0.6c-37.2,0.1-69.9-25-79.5-60.9l-96.2-360
			c-6.5-24.3,3-47,15.7-65.8L2408.1,1269.3z"/>
		<path class="st8" d="M1538.4,1399.2l328.4-224.1c6.3-5.1,10-12.7,10-20.8L1813,883.5c0-22.2-25.7-34.6-43.1-20.7L1504.8,1074
			c-6.3,5.1-10,12.7-10,20.8l0.5,283.6C1495.3,1400.8,1521,1413.1,1538.4,1399.2z"/>
		<path class="st8" d="M2852.3,1397.1L2523.2,1174c-6.4-5-10.1-12.7-10.1-20.7l62.8-271c0-22.2,25.6-34.7,43-20.8l265.8,210.5
			c6.4,5,10.1,12.7,10.1,20.7l0.5,283.6C2895.3,1398.4,2869.7,1410.9,2852.3,1397.1z"/>
		<path class="st9" d="M2025.5,5262.7l352.1-0.6c83.6-0.1,151.8-68.6,151.7-152.1l-1.2-740.3c-0.1-83.6-68.6-151.8-152.1-151.7
			l-352.1,0.6c-83.6,0.1-151.8,68.6-151.7,152.1l1.2,740.3C1873.6,5194.6,1942,5262.9,2025.5,5262.7z M1962.8,4514.5
			c-0.2-83.6,68.1-152,151.7-152.1l171.4-0.3c83.6-0.1,152,68.1,152.1,151.7l0.7,452.6c0.1,83.6-68.1,152-151.7,152.1l-171.4,0.3
			c-83.6,0.2-152-68.1-152.1-151.7L1962.8,4514.5z"/>
		<path class="st12" d="M2135,1343.3l120.6-0.2c26.1,0,49.1,17.2,51.5,39.4l16.4,151.9c3.2,30.4-20.3,56.3-52.7,56.3l-150.1,0.3
			c-32.5,0.1-56.2-25.7-52.9-56.2l15.9-151.9C2085.8,1360.6,2108.9,1343.3,2135,1343.3z"/>
		<path class="st12" d="M2142.8,6224.9l120.6-0.2c26.1,0,49-17.4,51.4-39.5l15.9-152c3.1-30.4-20.4-56.2-52.9-56.1l-150.1,0.3
			c-32.5,0.1-56.1,25.9-52.7,56.3l16.4,151.9C2093.7,6207.7,2116.8,6224.9,2142.8,6224.9z"/>
		<path class="st13" d="M2277.5,5977l-150.1,0.3c-32.5,0.1-56.1,25.9-52.7,56.3l16.4,151.9"/>
		<path class="st14" d="M2169.1,6157.1c4.1,0.2,8.7,0,15-0.4c10.8-0.8,21-3.3,29.1-7.6c9.9-5,18-12.8,22.3-24.2h-0.7
			c-9.5,6.7-22.1,10.5-37.4,10.5c-27.6,0.1-48.4-13.1-53-32.4c-6.1-25.4,9.5-48.5,52.3-52.2c43.8-3.8,71.9,26.6,64.1,59.9
			c-5.4,22.8-19.2,36.4-34.3,44c-11,5.6-25.4,8.9-39.7,9.8c-5.5,0.5-10.9,0.6-16.4,0.6L2169.1,6157.1z M2167.8,6102
			c2.1,14.4,15.5,23.6,34.2,23.6c14.5,0,26.4-4.6,32.9-11.1c1.6-1.5,2.6-3.4,2.9-5.6c3-21.6-13-42.8-41.4-40.5
			C2173.7,6070.1,2165.1,6083.3,2167.8,6102z"/>
		<path class="st13" d="M2270.6,1590.6l-150.1,0.3c-32.5,0.1-56.2-25.7-52.9-56.2l15.9-151.9"/>
		<path class="st14" d="M2228.8,1410.8c-4.1-0.2-8.7,0-15,0.4c-10.8,0.8-21,3.3-29.1,7.6c-9.9,5-18,12.8-22.3,24.2h0.6
			c9.5-6.7,22.1-10.5,37.4-10.5c27.6,0,48.4,13.1,53,32.4c6.1,25.4-9.5,48.5-52.3,52.2c-43.8,3.8-71.9-26.6-64.1-59.9
			c5.4-22.8,19.2-36.4,34.3-44c11-5.6,25.4-9,39.7-9.8c5.5-0.5,10.9-0.6,16.4-0.6L2228.8,1410.8z M2230,1466.1
			c-2.1-14.4-15.5-23.6-34.2-23.6c-14.5,0-26.4,4.6-32.9,11.1c-1.6,1.5-2.6,3.4-2.9,5.6c-3,21.6,12.9,42.8,41.4,40.5
			C2224.3,1497.8,2232.8,1484.7,2230,1466.1L2230,1466.1z"/>
		
			<rect x="2082.9" y="4801.5" transform="matrix(1 -1.570792e-03 1.570792e-03 1 -8.2417 3.2894)" class="st15" width="14.1" height="894"/>
		
			<rect x="2307.9" y="4801.2" transform="matrix(1 -1.570792e-03 1.570792e-03 1 -8.241 3.6428)" class="st15" width="14.1" height="894"/>
		
			<rect x="1765.4" y="5695.5" transform="matrix(1 -1.570792e-03 1.570792e-03 1 -8.9547 3.4661)" class="st15" width="873.4" height="14"/>
		<path class="st9" d="M2286.4,6980.5c0.1,41.4-35.8,74.9-80.1,75s-80.3-33.4-80.4-74.7"/>
		<path class="st16" d="M2275.8,6980.5l-150,0.1c0,14.5,4.5,28.7,13,40.5L2275.8,6980.5z"/>
	</g>
</g>
</svg>
