<svg id="Tram" xmlns="http://www.w3.org/2000/svg" viewBox="0 0 9393.32 5442.52"><defs><style>.cls-1{fill:#676868;}.cls-2{fill:#4c4d4c;}.cls-3{fill:#9b102d;}.cls-4{fill:#cd113e;}.cls-10,.cls-5{fill:#00475c;}.cls-13,.cls-5,.cls-7,.cls-9{stroke:#fff;stroke-miterlimit:10;}.cls-13,.cls-5,.cls-9{stroke-width:9px;}.cls-6{fill:#ededed;}.cls-7{fill:#3c3c3b;stroke-width:5px;}.cls-8{fill:#008d36;}.cls-12,.cls-9{fill:#053a50;}.cls-11{fill:#fdc60e;}.cls-13{fill:none;}</style></defs><path class="cls-1" d="M2297,5187.05c-110.48,0-200-20-200-44.68l-223.86-109.16c0-24.67,89.56-44.68,200.05-44.68H7413.92c110.49,0,200.05,20,200.05,44.68l-268.64,109.16c0,24.68-89.56,44.68-200.05,44.68"/><path class="cls-2" d="M7836.72,4857.1h-6355c-36,0-65.1,30-65.1,67v147.68c0,37,29.14,67,65.1,67h6355c35.95,0,65.1-30,65.1-67V4924.11C7901.82,4887.1,7872.67,4857.1,7836.72,4857.1Z"/><ellipse class="cls-2" cx="1921.63" cy="5122.96" rx="155.26" ry="159.8"/><ellipse class="cls-2" cx="3151.54" cy="5122.96" rx="155.26" ry="159.8"/><ellipse class="cls-2" cx="6182.49" cy="5122.96" rx="155.26" ry="159.8"/><ellipse class="cls-2" cx="7458.71" cy="5122.18" rx="155.26" ry="159.8"/><path class="cls-3" d="M8010.21,5036.56H1327.54c-20.13,0-36.45-13.37-36.45-29.88l48.87-575c0-16.5,35.46-22.06,55.6-22.06l6497.26-231.78c20.14,0,105.44,235.25,105.44,251.75l48.41,577.06C8046.67,5023.19,8030.34,5036.56,8010.21,5036.56Z"/><path class="cls-1" d="M1818.19,3759.94H7218.42a18.9,18.9,0,0,1,18.9,18.9v53.25a2.28,2.28,0,0,1-2.28,2.28H1793a2.28,2.28,0,0,1-2.28-2.28v-44.7a27.45,27.45,0,0,1,27.45-27.45Z"/><rect class="cls-2" x="5847.47" y="3723.51" width="515.79" height="36.43" rx="6.59"/><rect class="cls-2" x="6050.32" y="2900.86" width="43.39" height="304.82" rx="2.08" transform="matrix(0, 1, -1, 0, 9125.29, -3018.74)"/><path class="cls-2" d="M6322.62,3412.86h0c-14.5,2.25-30.82-2.14-36.26-9.76l-232.74-326c-5.44-7.63,2-15.71,16.47-18h0c14.5-2.26,30.81,2.13,36.25,9.75l232.74,326.06C6344.52,3402.52,6337.11,3410.6,6322.62,3412.86Z"/><path class="cls-2" d="M6068.34,3742.27h0c14.66,2.32,31.13-2,36.6-9.63l234-325.61c5.47-7.61-2.05-15.73-16.71-18.05h0c-14.67-2.31-31.14,2-36.61,9.63l-234,325.61C6046.16,3731.84,6053.68,3740,6068.34,3742.27Z"/><path class="cls-4" d="M8017.52,4669.38H1320.23l68-819.63c0-35.06,33.19-63.49,74.13-63.49H7907.14c23.4,0,42.37,16.25,42.37,36.29Z"/><path class="cls-5" d="M1808.06,4016.46V4566.1c0,22.71,16.51,41.12,36.88,41.12H2490c20.37,0,36.88-18.41,36.88-41.12V4016.46c0-22.71-16.51-41.12-36.88-41.12H1844.94C1824.57,3975.34,1808.06,3993.75,1808.06,4016.46Z"/><line class="cls-5" x1="1808.06" y1="4118.52" x2="2526.89" y2="4118.52"/><path class="cls-5" d="M6793.52,4016.46V4566.1c0,22.71,16.51,41.12,36.88,41.12h645.07c20.37,0,36.88-18.41,36.88-41.12V4016.46c0-22.71-16.51-41.12-36.88-41.12H6830.4C6810,3975.34,6793.52,3993.75,6793.52,4016.46Z"/><line class="cls-5" x1="6793.52" y1="4118.52" x2="7512.35" y2="4118.52"/><path class="cls-5" d="M5118.66,4016.46V4566.1c0,22.71,16.52,41.12,36.89,41.12h645.06c20.38,0,36.89-18.41,36.89-41.12V4016.46c0-22.71-16.51-41.12-36.89-41.12H5155.55C5135.18,3975.34,5118.66,3993.75,5118.66,4016.46Z"/><line class="cls-5" x1="5118.66" y1="4118.52" x2="5837.5" y2="4118.52"/><path class="cls-5" d="M4302.57,4009.3v549.64c0,22.71,16.52,41.11,36.89,41.11h645.06c20.38,0,36.89-18.4,36.89-41.11V4009.3c0-22.71-16.51-41.12-36.89-41.12H4339.46C4319.09,3968.18,4302.57,3986.59,4302.57,4009.3Z"/><line class="cls-5" x1="4302.57" y1="4111.35" x2="5021.41" y2="4111.35"/><path class="cls-5" d="M3469.5,4009.3v549.64c0,22.71,16.51,41.11,36.89,41.11h645.06c20.37,0,36.89-18.4,36.89-41.11V4009.3c0-22.71-16.52-41.12-36.89-41.12H3506.39C3486,3968.18,3469.5,3986.59,3469.5,4009.3Z"/><line class="cls-5" x1="3469.5" y1="4111.35" x2="4188.34" y2="4111.35"/><path class="cls-4" d="M1384.48,3786.26H7953.33a96.15,96.15,0,0,1,96.15,96.15v34.19a12,12,0,0,1-12,12H1303.09a12,12,0,0,1-12-12v-37A93.39,93.39,0,0,1,1384.48,3786.26Z"/><path class="cls-6" d="M8101.16,4824.78c11.43-63.59-25.59-123.26-80.51-132.84l.14,1.61L8038,4913.1C8068.33,4897.09,8094,4864.71,8101.16,4824.78Z"/><circle class="cls-7" cx="3059.67" cy="4573.41" r="30.22"/><circle class="cls-8" cx="3059.67" cy="4573.41" r="9.39"/><circle class="cls-7" cx="2924.74" cy="4573.41" r="30.22"/><circle class="cls-8" cx="2924.74" cy="4573.41" r="9.39"/><path class="cls-9" d="M7957.4,3975.34H7690.61c-20.38,0-36.89,18.41-36.89,41.12V4566.1c0,22.71,16.51,41.12,36.89,41.12H8008.7Z"/><path class="cls-10" d="M7962.28,3979.84H7694.94c-20.39,0-36.92,18.14-36.92,40.52v541.7c0,22.38,16.53,40.52,36.92,40.52h317.82Z"/><path class="cls-5" d="M1380.55,3975.34h266.79c20.37,0,36.88,18.41,36.88,41.12V4566.1c0,22.71-16.51,41.12-36.88,41.12h-318.1Z"/><path class="cls-11" d="M8049.48,3882.42a95.91,95.91,0,0,0-30.18-69.79l-12.14,1.41a12,12,0,0,0-10.53,13.31l9.21,79.23a12,12,0,0,0,13.3,10.53l30.34-3.52Z"/><path class="cls-11" d="M1290.09,3882.42a95.91,95.91,0,0,1,30.18-69.79l12.13,1.41a12,12,0,0,1,10.54,13.31l-9.21,79.23a12,12,0,0,1-13.31,10.53l-30.33-3.52Z"/><path class="cls-5" d="M2670.7,3967.25h651.18a36.08,36.08,0,0,1,36.08,36.08v986a0,0,0,0,1,0,0H2634.62a0,0,0,0,1,0,0v-986A36.08,36.08,0,0,1,2670.7,3967.25Z"/><circle class="cls-7" cx="3059.67" cy="4573.41" r="30.22"/><circle class="cls-8" cx="3059.67" cy="4573.41" r="9.39"/><circle class="cls-7" cx="2924.74" cy="4573.41" r="30.22"/><circle class="cls-8" cx="2924.74" cy="4573.41" r="9.39"/><path class="cls-5" d="M5980.62,3966.47h651.18a36.08,36.08,0,0,1,36.08,36.08v986a0,0,0,0,1,0,0H5944.54a0,0,0,0,1,0,0v-986A36.08,36.08,0,0,1,5980.62,3966.47Z"/><circle class="cls-7" cx="6369.59" cy="4572.63" r="30.22"/><circle class="cls-8" cx="6369.59" cy="4572.63" r="9.39"/><circle class="cls-7" cx="6234.66" cy="4572.63" r="30.22"/><circle class="cls-8" cx="6234.66" cy="4572.63" r="9.39"/><polygon class="cls-12" points="3353.42 4984.72 2638.44 4984.72 2639.15 4670.52 3353.42 4670.52 3353.42 4984.72"/><line class="cls-13" x1="2994.2" y1="4990.94" x2="2994.2" y2="3971.34"/><polygon class="cls-12" points="6663.61 4984.05 5948.64 4984.05 5949.09 4669.85 6663.39 4669.85 6663.61 4984.05"/><line class="cls-13" x1="6304.12" y1="4990.16" x2="6304.12" y2="3970.56"/></svg>